<?xml version="1.0" encoding="UTF-8"?>
<svg id="Layer_1" data-name="Layer 1" xmlns="http://www.w3.org/2000/svg" xmlns:xlink="http://www.w3.org/1999/xlink" viewBox="0 0 1366 767.98">
  <defs>
    <style>
      .cls-1 {
        fill: url(#TiranaSolidare_Pattern);
        opacity: .54;
      }

      .cls-1, .cls-2, .cls-3, .cls-4, .cls-5 {
        stroke-width: 0px;
      }

      .cls-2 {
        fill: #058789;
      }

      .cls-2, .cls-4, .cls-5 {
        opacity: .06;
      }

      .cls-3 {
        fill: none;
      }

      .cls-4 {
        fill: #e17153;
      }

      .cls-5 {
        fill: #00715d;
      }
    </style>
    <pattern id="TiranaSolidare_Pattern" data-name="TiranaSolidare Pattern" x="0" y="0" width="800" height="500" patternTransform="translate(0 -.02)" patternUnits="userSpaceOnUse" viewBox="0 0 800 500">
      <g>
        <rect class="cls-3" width="800" height="500"/>
        <g>
          <path class="cls-4" d="M762.25,508.4c.34-.22.59-.36.82-.53,1.82-1.35,3.67-2.67,5.45-4.07,5.81-4.59,10.35-10.14,12.81-17.22,2.2-6.36,2.45-12.69-.61-18.88-3.13-6.32-9.21-10.42-16.96-9.11.28.06.47.09.67.13,4.41.91,7.57,3.39,9.41,7.51.82,1.83,1.15,3.76,1.33,5.73.25,2.59-.18,5.05-1.33,7.38-1.53,3.09-4.16,4.31-7.54,3.57-2.37-.52-4.24-1.88-5.92-3.52-1.81-1.77-3.51-3.66-5.32-5.43-1.87-1.83-4.03-3.16-6.7-3.49-2.03-.26-3.95.06-5.82,1.23.65.27,1.17.47,1.68.71.53.25,1.07.51,1.57.82,5.8,3.47,9.89,8.49,12.86,14.46,1.25,2.51,2.15,5.17,2.57,7.95.39,2.59.69,5.19.93,7.79.14,1.6.08,3.22.11,4.98h0Z"/>
          <path class="cls-5" d="M754.42,463.98c-.74-.51-1.36-1.01-2.04-1.4-7.16-4.18-17.38-.9-20.84,6.69-.14.31-.21.67-.22,1.02-.07,2.44.27,4.82,1.17,7.1.82,2.09,1.92,4,3.87,5.24.71.45,1.54.7,2.51,1.12-.49-1.55-.98-2.78-1.27-4.06-.77-3.43-.48-6.71,1.88-9.51,3.19-3.78,8.43-4.53,12.91-1.93,1.03.6,2.02,1.28,2.98,1.89,1.98-3.47,5.26-5.65,9.66-5.47,4.58.19,7.51,2.83,8.92,7.18,0-.32-.04-.61-.08-.9-.71-6.67-4.93-11.29-11.92-11.69-.56-.03-1.18.04-1.7.23-2.39.87-4.32,2.37-5.82,4.5h0Z"/>
          <path class="cls-5" d="M729.93,471.14c-1.37,4.64-1.23,9.26.32,13.81,2.45,7.21,7.1,12.75,13.3,17.04,4.89,3.37,10.38,5.53,15.88,7.66.07.03.16-.02.24-.02.17-2.2-.81-3.69-2.78-4.56-.97-.43-1.95-.82-2.94-1.21-2.67-1.06-5.25-2.28-7.48-4.11-2.09-1.71-3.56-3.85-4.04-6.54-.37-2.12.81-3.36,2.95-3.21.88.06,1.75.24,2.62.35,1.09.13,2.12-.05,3.02-.72.76-.57.75-1.02.01-1.59-2.84-2.23-6.06-3.59-9.67-3.65-5.05-.08-8.19-2.59-9.9-7.18-.77-2.06-1.27-4.16-1.41-6.37-.04.1-.08.21-.12.32Z"/>
          <path class="cls-4" d="M762.24,475.6c.34,2.86,2.81,4.94,5.46,4.61,2.63-.34,4.55-3,4.2-5.83-.34-2.75-2.86-4.85-5.46-4.54-2.7.32-4.55,2.86-4.21,5.77h0Z"/>
          <path class="cls-2" d="M744.93,496.23c3.72,4.25,8.57,6.27,14.03,7.36-.02-1.42-.64-2.31-1.74-2.79-1.07-.46-2.19-.88-3.34-1.1-3.21-.62-6.27-1.57-8.95-3.48h0Z"/>
          <path class="cls-2" d="M746.54,494.49c2.85,2.04,6.4,2.77,10.17,3.06-.2-.5-.4-1.06-.8-1.26-.82-.43-1.7-.82-2.6-.96-2.33-.36-4.68-.59-6.78-.83h0Z"/>
        </g>
        <g>
          <path class="cls-4" d="M562.25,533.4c.34-.22.59-.36.82-.53,1.82-1.35,3.67-2.67,5.45-4.07,5.81-4.59,10.35-10.14,12.81-17.22,2.2-6.36,2.45-12.69-.61-18.88-3.13-6.32-9.21-10.42-16.96-9.11.28.06.47.09.67.13,4.41.91,7.57,3.39,9.41,7.51.82,1.83,1.15,3.76,1.33,5.73.25,2.59-.18,5.05-1.33,7.38-1.53,3.09-4.16,4.31-7.54,3.57-2.37-.52-4.24-1.88-5.92-3.52-1.81-1.77-3.51-3.66-5.32-5.43-1.87-1.83-4.03-3.16-6.7-3.49-2.03-.26-3.95.06-5.82,1.23.65.27,1.17.47,1.68.71.53.25,1.07.51,1.57.82,5.8,3.47,9.89,8.49,12.86,14.46,1.25,2.51,2.15,5.17,2.57,7.95.39,2.59.69,5.19.93,7.79.14,1.6.08,3.22.11,4.98h0Z"/>
          <path class="cls-5" d="M554.42,488.98c-.74-.51-1.36-1.01-2.04-1.4-7.16-4.18-17.38-.9-20.84,6.69-.14.31-.21.67-.22,1.02-.07,2.44.27,4.82,1.17,7.1.82,2.09,1.92,4,3.87,5.24.71.45,1.54.7,2.51,1.12-.49-1.55-.98-2.78-1.27-4.06-.77-3.43-.48-6.71,1.88-9.51,3.19-3.78,8.43-4.53,12.91-1.93,1.03.6,2.02,1.28,2.98,1.89,1.98-3.47,5.26-5.65,9.66-5.47,4.58.19,7.51,2.83,8.92,7.18,0-.32-.04-.61-.08-.9-.71-6.67-4.93-11.29-11.92-11.69-.56-.03-1.18.04-1.7.23-2.39.87-4.32,2.37-5.82,4.5h0Z"/>
          <path class="cls-5" d="M529.93,496.14c-1.37,4.64-1.23,9.26.32,13.81,2.45,7.21,7.1,12.75,13.3,17.04,4.89,3.37,10.38,5.53,15.88,7.66.07.03.16-.02.24-.02.17-2.2-.81-3.69-2.78-4.56-.97-.43-1.95-.82-2.94-1.21-2.67-1.06-5.25-2.28-7.48-4.11-2.09-1.71-3.56-3.85-4.04-6.54-.37-2.12.81-3.36,2.95-3.21.88.06,1.75.24,2.62.35,1.09.13,2.12-.05,3.02-.72.76-.57.75-1.02.01-1.59-2.84-2.23-6.06-3.59-9.67-3.65-5.05-.08-8.19-2.59-9.9-7.18-.77-2.06-1.27-4.16-1.41-6.37-.04.1-.08.21-.12.32Z"/>
          <path class="cls-4" d="M562.24,500.6c.34,2.86,2.81,4.94,5.46,4.61,2.63-.34,4.55-3,4.2-5.83-.34-2.75-2.86-4.85-5.46-4.54-2.7.32-4.55,2.86-4.21,5.77h0Z"/>
        </g>
        <g>
          <path class="cls-4" d="M37.56,536.06c.4-.05.69-.07.97-.13,2.23-.44,4.46-.83,6.67-1.33,7.22-1.65,13.71-4.71,18.96-10.04,4.72-4.79,7.67-10.4,7.56-17.31-.11-7.05-3.84-13.36-11.4-15.52.23.17.39.29.55.41,3.59,2.72,5.37,6.32,5.27,10.83-.04,2-.58,3.89-1.26,5.75-.89,2.45-2.33,4.49-4.37,6.09-2.71,2.14-5.61,2.1-8.34-.02-1.92-1.49-3.02-3.52-3.84-5.73-.87-2.37-1.59-4.81-2.47-7.19-.9-2.45-2.28-4.59-4.55-6.03-1.73-1.1-3.59-1.64-5.79-1.4.47.52.86.93,1.21,1.36.38.46.74.92,1.07,1.41,3.74,5.63,5.28,11.91,5.4,18.59.05,2.8-.27,5.59-1.09,8.28-.76,2.5-1.6,4.98-2.51,7.43-.56,1.51-1.31,2.94-2.04,4.55h0Z"/>
          <path class="cls-5" d="M49.58,492.59c-.45-.78-.8-1.49-1.24-2.15-4.67-6.85-15.31-8.28-21.69-2.92-.26.22-.48.52-.64.83-1.11,2.17-1.83,4.46-2,6.91-.16,2.24.02,4.44,1.24,6.4.44.71,1.09,1.29,1.78,2.08.22-1.62.31-2.93.6-4.21.78-3.43,2.45-6.27,5.79-7.78,4.5-2.04,9.56-.47,12.49,3.81.68.99,1.28,2.03,1.88,2.99,3.28-2.28,7.18-2.84,11.08-.79,4.06,2.14,5.57,5.78,4.97,10.32.13-.29.22-.57.32-.85,2.23-6.33.4-12.31-5.74-15.68-.49-.27-1.08-.47-1.64-.52-2.53-.24-4.92.28-7.19,1.56h0Z"/>
          <path class="cls-5" d="M24.4,488.53c-3.23,3.6-5.09,7.83-5.65,12.61-.88,7.56.93,14.56,4.69,21.1,2.97,5.15,6.99,9.46,11.04,13.74.05.05.15.06.23.08,1.1-1.91.85-3.68-.55-5.31-.69-.8-1.41-1.58-2.13-2.36-1.95-2.1-3.76-4.31-4.99-6.93-1.15-2.44-1.56-5.01-.84-7.64.57-2.08,2.17-2.69,4.04-1.63.77.43,1.47.97,2.22,1.44.93.59,1.94.87,3.03.65.93-.19,1.12-.59.7-1.43-1.61-3.23-3.93-5.85-7.16-7.45-4.53-2.25-6.28-5.86-5.86-10.74.19-2.19.64-4.3,1.47-6.36-.08.08-.16.15-.24.23Z"/>
        </g>
        <g>
          <path class="cls-4" d="M762.25,408.4c.34-.22.59-.36.82-.53,1.82-1.35,3.67-2.67,5.45-4.07,5.81-4.59,10.35-10.14,12.81-17.22,2.2-6.36,2.45-12.69-.61-18.88-3.13-6.32-9.21-10.42-16.96-9.11.28.06.47.09.67.13,4.41.91,7.57,3.39,9.41,7.51.82,1.83,1.15,3.76,1.33,5.73.25,2.59-.18,5.05-1.33,7.38-1.53,3.09-4.16,4.31-7.54,3.57-2.37-.52-4.24-1.88-5.92-3.52-1.81-1.77-3.51-3.66-5.32-5.43-1.87-1.83-4.03-3.16-6.7-3.49-2.03-.26-3.95.06-5.82,1.23.65.27,1.17.47,1.68.71.53.25,1.07.51,1.57.82,5.8,3.47,9.89,8.49,12.86,14.46,1.25,2.51,2.15,5.17,2.57,7.95.39,2.59.69,5.19.93,7.79.14,1.6.08,3.22.11,4.98h0Z"/>
          <path class="cls-5" d="M754.42,363.98c-.74-.51-1.36-1.01-2.04-1.4-7.16-4.18-17.38-.9-20.84,6.69-.14.31-.21.67-.22,1.02-.07,2.44.27,4.82,1.17,7.1.82,2.09,1.92,4,3.87,5.24.71.45,1.54.7,2.51,1.12-.49-1.55-.98-2.78-1.27-4.06-.77-3.43-.48-6.71,1.88-9.51,3.19-3.78,8.43-4.53,12.91-1.93,1.03.6,2.02,1.28,2.98,1.89,1.98-3.47,5.26-5.65,9.66-5.47,4.58.19,7.51,2.83,8.92,7.18,0-.32-.04-.61-.08-.9-.71-6.67-4.93-11.29-11.92-11.69-.56-.03-1.18.04-1.7.23-2.39.87-4.32,2.37-5.82,4.5h0Z"/>
          <path class="cls-5" d="M729.93,371.14c-1.37,4.64-1.23,9.26.32,13.81,2.45,7.21,7.1,12.75,13.3,17.04,4.89,3.37,10.38,5.53,15.88,7.66.07.03.16-.02.24-.02.17-2.2-.81-3.69-2.78-4.56-.97-.43-1.95-.82-2.94-1.21-2.67-1.06-5.25-2.28-7.48-4.11-2.09-1.71-3.56-3.85-4.04-6.54-.37-2.12.81-3.36,2.95-3.21.88.06,1.75.24,2.62.35,1.09.13,2.12-.05,3.02-.72.76-.57.75-1.02.01-1.59-2.84-2.23-6.06-3.59-9.67-3.65-5.05-.08-8.19-2.59-9.9-7.18-.77-2.06-1.27-4.16-1.41-6.37-.04.1-.08.21-.12.32Z"/>
          <path class="cls-4" d="M762.24,375.6c.34,2.86,2.81,4.94,5.46,4.61,2.63-.34,4.55-3,4.2-5.83-.34-2.75-2.86-4.85-5.46-4.54-2.7.32-4.55,2.86-4.21,5.77h0Z"/>
          <path class="cls-2" d="M744.93,396.23c3.72,4.25,8.57,6.27,14.03,7.36-.02-1.42-.64-2.31-1.74-2.79-1.07-.46-2.19-.88-3.34-1.1-3.21-.62-6.27-1.57-8.95-3.48h0Z"/>
          <path class="cls-2" d="M746.54,394.49c2.85,2.04,6.4,2.77,10.17,3.06-.2-.5-.4-1.06-.8-1.26-.82-.43-1.7-.82-2.6-.96-2.33-.36-4.68-.59-6.78-.83h0Z"/>
        </g>
        <g>
          <g>
            <path class="cls-4" d="M562.25,433.4c.34-.22.59-.36.82-.53,1.82-1.35,3.67-2.67,5.45-4.07,5.81-4.59,10.35-10.14,12.81-17.22,2.2-6.36,2.45-12.69-.61-18.88-3.13-6.32-9.21-10.42-16.96-9.11.28.06.47.09.67.13,4.41.91,7.57,3.39,9.41,7.51.82,1.83,1.15,3.76,1.33,5.73.25,2.59-.18,5.05-1.33,7.38-1.53,3.09-4.16,4.31-7.54,3.57-2.37-.52-4.24-1.88-5.92-3.52-1.81-1.77-3.51-3.66-5.32-5.43-1.87-1.83-4.03-3.16-6.7-3.49-2.03-.26-3.95.06-5.82,1.23.65.27,1.17.47,1.68.71.53.25,1.07.51,1.57.82,5.8,3.47,9.89,8.49,12.86,14.46,1.25,2.51,2.15,5.17,2.57,7.95.39,2.59.69,5.19.93,7.79.14,1.6.08,3.22.11,4.98h0Z"/>
            <path class="cls-5" d="M554.42,388.98c-.74-.51-1.36-1.01-2.04-1.4-7.16-4.18-17.38-.9-20.84,6.69-.14.31-.21.67-.22,1.02-.07,2.44.27,4.82,1.17,7.1.82,2.09,1.92,4,3.87,5.24.71.45,1.54.7,2.51,1.12-.49-1.55-.98-2.78-1.27-4.06-.77-3.43-.48-6.71,1.88-9.51,3.19-3.78,8.43-4.53,12.91-1.93,1.03.6,2.02,1.28,2.98,1.89,1.98-3.47,5.26-5.65,9.66-5.47,4.58.19,7.51,2.83,8.92,7.18,0-.32-.04-.61-.08-.9-.71-6.67-4.93-11.29-11.92-11.69-.56-.03-1.18.04-1.7.23-2.39.87-4.32,2.37-5.82,4.5h0Z"/>
            <path class="cls-5" d="M529.93,396.14c-1.37,4.64-1.23,9.26.32,13.81,2.45,7.21,7.1,12.75,13.3,17.04,4.89,3.37,10.38,5.53,15.88,7.66.07.03.16-.02.24-.02.17-2.2-.81-3.69-2.78-4.56-.97-.43-1.95-.82-2.94-1.21-2.67-1.06-5.25-2.28-7.48-4.11-2.09-1.71-3.56-3.85-4.04-6.54-.37-2.12.81-3.36,2.95-3.21.88.06,1.75.24,2.62.35,1.09.13,2.12-.05,3.02-.72.76-.57.75-1.02.01-1.59-2.84-2.23-6.06-3.59-9.67-3.65-5.05-.08-8.19-2.59-9.9-7.18-.77-2.06-1.27-4.16-1.41-6.37-.04.1-.08.21-.12.32Z"/>
            <path class="cls-4" d="M562.24,400.6c.34,2.86,2.81,4.94,5.46,4.61,2.63-.34,4.55-3,4.2-5.83-.34-2.75-2.86-4.85-5.46-4.54-2.7.32-4.55,2.86-4.21,5.77h0Z"/>
            <path class="cls-2" d="M544.93,421.23c3.72,4.25,8.57,6.27,14.03,7.36-.02-1.42-.64-2.31-1.74-2.79-1.07-.46-2.19-.88-3.34-1.1-3.21-.62-6.27-1.57-8.95-3.48h0Z"/>
            <path class="cls-2" d="M546.54,419.49c2.85,2.04,6.4,2.77,10.17,3.06-.2-.5-.4-1.06-.8-1.26-.82-.43-1.7-.82-2.6-.96-2.33-.36-4.68-.59-6.78-.83h0Z"/>
          </g>
          <g>
            <path class="cls-4" d="M637.56,461.06c.4-.05.69-.07.97-.13,2.23-.44,4.46-.83,6.67-1.33,7.22-1.65,13.71-4.71,18.96-10.04,4.72-4.79,7.67-10.4,7.56-17.31-.11-7.05-3.84-13.36-11.4-15.52.23.17.39.29.55.41,3.59,2.72,5.37,6.32,5.27,10.83-.04,2-.58,3.89-1.26,5.75-.89,2.45-2.33,4.49-4.37,6.09-2.71,2.14-5.61,2.1-8.34-.02-1.92-1.49-3.02-3.52-3.84-5.73-.87-2.37-1.59-4.81-2.47-7.19-.9-2.45-2.28-4.59-4.55-6.03-1.73-1.1-3.59-1.64-5.79-1.4.47.52.86.93,1.21,1.36.38.46.74.92,1.07,1.41,3.74,5.63,5.28,11.91,5.4,18.59.05,2.8-.27,5.59-1.09,8.28-.76,2.5-1.6,4.98-2.51,7.43-.56,1.51-1.31,2.94-2.04,4.55h0Z"/>
            <path class="cls-5" d="M649.58,417.59c-.45-.78-.8-1.49-1.24-2.15-4.67-6.85-15.31-8.28-21.69-2.92-.26.22-.48.52-.64.83-1.11,2.17-1.83,4.46-2,6.91-.16,2.24.02,4.44,1.24,6.4.44.71,1.09,1.29,1.78,2.08.22-1.62.31-2.93.6-4.21.78-3.43,2.45-6.27,5.79-7.78,4.5-2.04,9.56-.47,12.49,3.81.68.99,1.28,2.03,1.88,2.99,3.28-2.28,7.18-2.84,11.08-.79,4.06,2.14,5.57,5.78,4.97,10.32.13-.29.22-.57.32-.85,2.23-6.33.4-12.31-5.74-15.68-.49-.27-1.08-.47-1.64-.52-2.53-.24-4.92.28-7.19,1.56h0Z"/>
            <path class="cls-5" d="M624.4,413.53c-3.23,3.6-5.09,7.83-5.65,12.61-.88,7.56.93,14.56,4.69,21.1,2.97,5.15,6.99,9.46,11.04,13.74.05.05.15.06.23.08,1.1-1.91.85-3.68-.55-5.31-.69-.8-1.41-1.58-2.13-2.36-1.95-2.1-3.76-4.31-4.99-6.93-1.15-2.44-1.56-5.01-.84-7.64.57-2.08,2.17-2.69,4.04-1.63.77.43,1.47.97,2.22,1.44.93.59,1.94.87,3.03.65.93-.19,1.12-.59.7-1.43-1.61-3.23-3.93-5.85-7.16-7.45-4.53-2.25-6.28-5.86-5.86-10.74.19-2.19.64-4.3,1.47-6.36-.08.08-.16.15-.24.23Z"/>
            <path class="cls-4" d="M651.65,431.45c-.92,2.73.41,5.67,2.95,6.51,2.52.82,5.4-.76,6.3-3.46.88-2.63-.5-5.61-2.98-6.45-2.58-.87-5.34.63-6.28,3.4h0Z"/>
            <path class="cls-2" d="M627.15,442.64c1.53,5.44,5.05,9.35,9.5,12.68.59-1.29.41-2.37-.38-3.27-.77-.88-1.6-1.73-2.54-2.43-2.63-1.94-4.98-4.11-6.58-6.99h0Z"/>
            <path class="cls-2" d="M629.35,441.75c1.69,3.07,4.59,5.25,7.87,7.13.03-.54.09-1.13-.17-1.48-.55-.74-1.18-1.47-1.94-1.99-1.95-1.33-3.98-2.54-5.76-3.67h0Z"/>
          </g>
        </g>
        <g>
          <g>
            <path class="cls-4" d="M362.25,458.4c.34-.22.59-.36.82-.53,1.82-1.35,3.67-2.67,5.45-4.07,5.81-4.59,10.35-10.14,12.81-17.22,2.2-6.36,2.45-12.69-.61-18.88-3.13-6.32-9.21-10.42-16.96-9.11.28.06.47.09.67.13,4.41.91,7.57,3.39,9.41,7.51.82,1.83,1.15,3.76,1.33,5.73.25,2.59-.18,5.05-1.33,7.38-1.53,3.09-4.16,4.31-7.54,3.57-2.37-.52-4.24-1.88-5.92-3.52-1.81-1.77-3.51-3.66-5.32-5.43-1.87-1.83-4.03-3.16-6.7-3.49-2.03-.26-3.95.06-5.82,1.23.65.27,1.17.47,1.68.71.53.25,1.07.51,1.57.82,5.8,3.47,9.89,8.49,12.86,14.46,1.25,2.51,2.15,5.17,2.57,7.95.39,2.59.69,5.19.93,7.79.14,1.6.08,3.22.11,4.98h0Z"/>
            <path class="cls-5" d="M354.42,413.98c-.74-.51-1.36-1.01-2.04-1.4-7.16-4.18-17.38-.9-20.84,6.69-.14.31-.21.67-.22,1.02-.07,2.44.27,4.82,1.17,7.1.82,2.09,1.92,4,3.87,5.24.71.45,1.54.7,2.51,1.12-.49-1.55-.98-2.78-1.27-4.06-.77-3.43-.48-6.71,1.88-9.51,3.19-3.78,8.43-4.53,12.91-1.93,1.03.6,2.02,1.28,2.98,1.89,1.98-3.47,5.26-5.65,9.66-5.47,4.58.19,7.51,2.83,8.92,7.18,0-.32-.04-.61-.08-.9-.71-6.67-4.93-11.29-11.92-11.69-.56-.03-1.18.04-1.7.23-2.39.87-4.32,2.37-5.82,4.5h0Z"/>
            <path class="cls-5" d="M329.93,421.14c-1.37,4.64-1.23,9.26.32,13.81,2.45,7.21,7.1,12.75,13.3,17.04,4.89,3.37,10.38,5.53,15.88,7.66.07.03.16-.02.24-.02.17-2.2-.81-3.69-2.78-4.56-.97-.43-1.95-.82-2.94-1.21-2.67-1.06-5.25-2.28-7.48-4.11-2.09-1.71-3.56-3.85-4.04-6.54-.37-2.12.81-3.36,2.95-3.21.88.06,1.75.24,2.62.35,1.09.13,2.12-.05,3.02-.72.76-.57.75-1.02.01-1.59-2.84-2.23-6.06-3.59-9.67-3.65-5.05-.08-8.19-2.59-9.9-7.18-.77-2.06-1.27-4.16-1.41-6.37-.04.1-.08.21-.12.32Z"/>
            <path class="cls-4" d="M362.24,425.6c.34,2.86,2.81,4.94,5.46,4.61,2.63-.34,4.55-3,4.2-5.83-.34-2.75-2.86-4.85-5.46-4.54-2.7.32-4.55,2.86-4.21,5.77h0Z"/>
            <path class="cls-2" d="M344.93,446.23c3.72,4.25,8.57,6.27,14.03,7.36-.02-1.42-.64-2.31-1.74-2.79-1.07-.46-2.19-.88-3.34-1.1-3.21-.62-6.27-1.57-8.95-3.48h0Z"/>
            <path class="cls-2" d="M346.54,444.49c2.85,2.04,6.4,2.77,10.17,3.06-.2-.5-.4-1.06-.8-1.26-.82-.43-1.7-.82-2.6-.96-2.33-.36-4.68-.59-6.78-.83h0Z"/>
          </g>
          <g>
            <path class="cls-4" d="M437.56,486.06c.4-.05.69-.07.97-.13,2.23-.44,4.46-.83,6.67-1.33,7.22-1.65,13.71-4.71,18.96-10.04,4.72-4.79,7.67-10.4,7.56-17.31-.11-7.05-3.84-13.36-11.4-15.52.23.17.39.29.55.41,3.59,2.72,5.37,6.32,5.27,10.83-.04,2-.58,3.89-1.26,5.75-.89,2.45-2.33,4.49-4.37,6.09-2.71,2.14-5.61,2.1-8.34-.02-1.92-1.49-3.02-3.52-3.84-5.73-.87-2.37-1.59-4.81-2.47-7.19-.9-2.45-2.28-4.59-4.55-6.03-1.73-1.1-3.59-1.64-5.79-1.4.47.52.86.93,1.21,1.36.38.46.74.92,1.07,1.41,3.74,5.63,5.28,11.91,5.4,18.59.05,2.8-.27,5.59-1.09,8.28-.76,2.5-1.6,4.98-2.51,7.43-.56,1.51-1.31,2.94-2.04,4.55h0Z"/>
            <path class="cls-5" d="M449.58,442.59c-.45-.78-.8-1.49-1.24-2.15-4.67-6.85-15.31-8.28-21.69-2.92-.26.22-.48.52-.64.83-1.11,2.17-1.83,4.46-2,6.91-.16,2.24.02,4.44,1.24,6.4.44.71,1.09,1.29,1.78,2.08.22-1.62.31-2.93.6-4.21.78-3.43,2.45-6.27,5.79-7.78,4.5-2.04,9.56-.47,12.49,3.81.68.99,1.28,2.03,1.88,2.99,3.28-2.28,7.18-2.84,11.08-.79,4.06,2.14,5.57,5.78,4.97,10.32.13-.29.22-.57.32-.85,2.23-6.33.4-12.31-5.74-15.68-.49-.27-1.08-.47-1.64-.52-2.53-.24-4.92.28-7.19,1.56h0Z"/>
            <path class="cls-5" d="M424.4,438.53c-3.23,3.6-5.09,7.83-5.65,12.61-.88,7.56.93,14.56,4.69,21.1,2.97,5.15,6.99,9.46,11.04,13.74.05.05.15.06.23.08,1.1-1.91.85-3.68-.55-5.31-.69-.8-1.41-1.58-2.13-2.36-1.95-2.1-3.76-4.31-4.99-6.93-1.15-2.44-1.56-5.01-.84-7.64.57-2.08,2.17-2.69,4.04-1.63.77.43,1.47.97,2.22,1.44.93.59,1.94.87,3.03.65.93-.19,1.12-.59.7-1.43-1.61-3.23-3.93-5.85-7.16-7.45-4.53-2.25-6.28-5.86-5.86-10.74.19-2.19.64-4.3,1.47-6.36-.08.08-.16.15-.24.23Z"/>
            <path class="cls-4" d="M451.65,456.45c-.92,2.73.41,5.67,2.95,6.51,2.52.82,5.4-.76,6.3-3.46.88-2.63-.5-5.61-2.98-6.45-2.58-.87-5.34.63-6.28,3.4h0Z"/>
            <path class="cls-2" d="M427.15,467.64c1.53,5.44,5.05,9.35,9.5,12.68.59-1.29.41-2.37-.38-3.27-.77-.88-1.6-1.73-2.54-2.43-2.63-1.94-4.98-4.11-6.58-6.99h0Z"/>
            <path class="cls-2" d="M429.35,466.75c1.69,3.07,4.59,5.25,7.87,7.13.03-.54.09-1.13-.17-1.48-.55-.74-1.18-1.47-1.94-1.99-1.95-1.33-3.98-2.54-5.76-3.67h0Z"/>
          </g>
        </g>
        <g>
          <g>
            <path class="cls-4" d="M162.25,483.4c.34-.22.59-.36.82-.53,1.82-1.35,3.67-2.67,5.45-4.07,5.81-4.59,10.35-10.14,12.81-17.22,2.2-6.36,2.45-12.69-.61-18.88-3.13-6.32-9.21-10.42-16.96-9.11.28.06.47.09.67.13,4.41.91,7.57,3.39,9.41,7.51.82,1.83,1.15,3.76,1.33,5.73.25,2.59-.18,5.05-1.33,7.38-1.53,3.09-4.16,4.31-7.54,3.57-2.37-.52-4.24-1.88-5.92-3.52-1.81-1.77-3.51-3.66-5.32-5.43-1.87-1.83-4.03-3.16-6.7-3.49-2.03-.26-3.95.06-5.82,1.23.65.27,1.17.47,1.68.71.53.25,1.07.51,1.57.82,5.8,3.47,9.89,8.49,12.86,14.46,1.25,2.51,2.15,5.17,2.57,7.95.39,2.59.69,5.19.93,7.79.14,1.6.08,3.22.11,4.98h0Z"/>
            <path class="cls-5" d="M154.42,438.98c-.74-.51-1.36-1.01-2.04-1.4-7.16-4.18-17.38-.9-20.84,6.69-.14.31-.21.67-.22,1.02-.07,2.44.27,4.82,1.17,7.1.82,2.09,1.92,4,3.87,5.24.71.45,1.54.7,2.51,1.12-.49-1.55-.98-2.78-1.27-4.06-.77-3.43-.48-6.71,1.88-9.51,3.19-3.78,8.43-4.53,12.91-1.93,1.03.6,2.02,1.28,2.98,1.89,1.98-3.47,5.26-5.65,9.66-5.47,4.58.19,7.51,2.83,8.92,7.18,0-.32-.04-.61-.08-.9-.71-6.67-4.93-11.29-11.92-11.69-.56-.03-1.18.04-1.7.23-2.39.87-4.32,2.37-5.82,4.5h0Z"/>
            <path class="cls-5" d="M129.93,446.14c-1.37,4.64-1.23,9.26.32,13.81,2.45,7.21,7.1,12.75,13.3,17.04,4.89,3.37,10.38,5.53,15.88,7.66.07.03.16-.02.24-.02.17-2.2-.81-3.69-2.78-4.56-.97-.43-1.95-.82-2.94-1.21-2.67-1.06-5.25-2.28-7.48-4.11-2.09-1.71-3.56-3.85-4.04-6.54-.37-2.12.81-3.36,2.95-3.21.88.06,1.75.24,2.62.35,1.09.13,2.12-.05,3.02-.72.76-.57.75-1.02.01-1.59-2.84-2.23-6.06-3.59-9.67-3.65-5.05-.08-8.19-2.59-9.9-7.18-.77-2.06-1.27-4.16-1.41-6.37-.04.1-.08.21-.12.32Z"/>
            <path class="cls-4" d="M162.24,450.6c.34,2.86,2.81,4.94,5.46,4.61,2.63-.34,4.55-3,4.2-5.83-.34-2.75-2.86-4.85-5.46-4.54-2.7.32-4.55,2.86-4.21,5.77h0Z"/>
            <path class="cls-2" d="M144.93,471.23c3.72,4.25,8.57,6.27,14.03,7.36-.02-1.42-.64-2.31-1.74-2.79-1.07-.46-2.19-.88-3.34-1.1-3.21-.62-6.27-1.57-8.95-3.48h0Z"/>
            <path class="cls-2" d="M146.54,469.49c2.85,2.04,6.4,2.77,10.17,3.06-.2-.5-.4-1.06-.8-1.26-.82-.43-1.7-.82-2.6-.96-2.33-.36-4.68-.59-6.78-.83h0Z"/>
          </g>
          <g>
            <path class="cls-4" d="M237.56,511.06c.4-.05.69-.07.97-.13,2.23-.44,4.46-.83,6.67-1.33,7.22-1.65,13.71-4.71,18.96-10.04,4.72-4.79,7.67-10.4,7.56-17.31-.11-7.05-3.84-13.36-11.4-15.52.23.17.39.29.55.41,3.59,2.72,5.37,6.32,5.27,10.83-.04,2-.58,3.89-1.26,5.75-.89,2.45-2.33,4.49-4.37,6.09-2.71,2.14-5.61,2.1-8.34-.02-1.92-1.49-3.02-3.52-3.84-5.73-.87-2.37-1.59-4.81-2.47-7.19-.9-2.45-2.28-4.59-4.55-6.03-1.73-1.1-3.59-1.64-5.79-1.4.47.52.86.93,1.21,1.36.38.46.74.92,1.07,1.41,3.74,5.63,5.28,11.91,5.4,18.59.05,2.8-.27,5.59-1.09,8.28-.76,2.5-1.6,4.98-2.51,7.43-.56,1.51-1.31,2.94-2.04,4.55h0Z"/>
            <path class="cls-5" d="M249.58,467.59c-.45-.78-.8-1.49-1.24-2.15-4.67-6.85-15.31-8.28-21.69-2.92-.26.22-.48.52-.64.83-1.11,2.17-1.83,4.46-2,6.91-.16,2.24.02,4.44,1.24,6.4.44.71,1.09,1.29,1.78,2.08.22-1.62.31-2.93.6-4.21.78-3.43,2.45-6.27,5.79-7.78,4.5-2.04,9.56-.47,12.49,3.81.68.99,1.28,2.03,1.88,2.99,3.28-2.28,7.18-2.84,11.08-.79,4.06,2.14,5.57,5.78,4.97,10.32.13-.29.22-.57.32-.85,2.23-6.33.4-12.31-5.74-15.68-.49-.27-1.08-.47-1.64-.52-2.53-.24-4.92.28-7.19,1.56h0Z"/>
            <path class="cls-5" d="M224.4,463.53c-3.23,3.6-5.09,7.83-5.65,12.61-.88,7.56.93,14.56,4.69,21.1,2.97,5.15,6.99,9.46,11.04,13.74.05.05.15.06.23.08,1.1-1.91.85-3.68-.55-5.31-.69-.8-1.41-1.58-2.13-2.36-1.95-2.1-3.76-4.31-4.99-6.93-1.15-2.44-1.56-5.01-.84-7.64.57-2.08,2.17-2.69,4.04-1.63.77.43,1.47.97,2.22,1.44.93.59,1.94.87,3.03.65.93-.19,1.12-.59.7-1.43-1.61-3.23-3.93-5.85-7.16-7.45-4.53-2.25-6.28-5.86-5.86-10.74.19-2.19.64-4.3,1.47-6.36-.08.08-.16.15-.24.23Z"/>
            <path class="cls-4" d="M251.65,481.45c-.92,2.73.41,5.67,2.95,6.51,2.52.82,5.4-.76,6.3-3.46.88-2.63-.5-5.61-2.98-6.45-2.58-.87-5.34.63-6.28,3.4h0Z"/>
            <path class="cls-2" d="M227.15,492.64c1.53,5.44,5.05,9.35,9.5,12.68.59-1.29.41-2.37-.38-3.27-.77-.88-1.6-1.73-2.54-2.43-2.63-1.94-4.98-4.11-6.58-6.99h0Z"/>
            <path class="cls-2" d="M229.35,491.75c1.69,3.07,4.59,5.25,7.87,7.13.03-.54.09-1.13-.17-1.48-.55-.74-1.18-1.47-1.94-1.99-1.95-1.33-3.98-2.54-5.76-3.67h0Z"/>
          </g>
        </g>
        <g>
          <path class="cls-4" d="M37.56,436.06c.4-.05.69-.07.97-.13,2.23-.44,4.46-.83,6.67-1.33,7.22-1.65,13.71-4.71,18.96-10.04,4.72-4.79,7.67-10.4,7.56-17.31-.11-7.05-3.84-13.36-11.4-15.52.23.17.39.29.55.41,3.59,2.72,5.37,6.32,5.27,10.83-.04,2-.58,3.89-1.26,5.75-.89,2.45-2.33,4.49-4.37,6.09-2.71,2.14-5.61,2.1-8.34-.02-1.92-1.49-3.02-3.52-3.84-5.73-.87-2.37-1.59-4.81-2.47-7.19-.9-2.45-2.28-4.59-4.55-6.03-1.73-1.1-3.59-1.64-5.79-1.4.47.52.86.93,1.21,1.36.38.46.74.92,1.07,1.41,3.74,5.63,5.28,11.91,5.4,18.59.05,2.8-.27,5.59-1.09,8.28-.76,2.5-1.6,4.98-2.51,7.43-.56,1.51-1.31,2.94-2.04,4.55h0Z"/>
          <path class="cls-5" d="M49.58,392.59c-.45-.78-.8-1.49-1.24-2.15-4.67-6.85-15.31-8.28-21.69-2.92-.26.22-.48.52-.64.83-1.11,2.17-1.83,4.46-2,6.91-.16,2.24.02,4.44,1.24,6.4.44.71,1.09,1.29,1.78,2.08.22-1.62.31-2.93.6-4.21.78-3.43,2.45-6.27,5.79-7.78,4.5-2.04,9.56-.47,12.49,3.81.68.99,1.28,2.03,1.88,2.99,3.28-2.28,7.18-2.84,11.08-.79,4.06,2.14,5.57,5.78,4.97,10.32.13-.29.22-.57.32-.85,2.23-6.33.4-12.31-5.74-15.68-.49-.27-1.08-.47-1.64-.52-2.53-.24-4.92.28-7.19,1.56h0Z"/>
          <path class="cls-5" d="M24.4,388.53c-3.23,3.6-5.09,7.83-5.65,12.61-.88,7.56.93,14.56,4.69,21.1,2.97,5.15,6.99,9.46,11.04,13.74.05.05.15.06.23.08,1.1-1.91.85-3.68-.55-5.31-.69-.8-1.41-1.58-2.13-2.36-1.95-2.1-3.76-4.31-4.99-6.93-1.15-2.44-1.56-5.01-.84-7.64.57-2.08,2.17-2.69,4.04-1.63.77.43,1.47.97,2.22,1.44.93.59,1.94.87,3.03.65.93-.19,1.12-.59.7-1.43-1.61-3.23-3.93-5.85-7.16-7.45-4.53-2.25-6.28-5.86-5.86-10.74.19-2.19.64-4.3,1.47-6.36-.08.08-.16.15-.24.23Z"/>
          <path class="cls-4" d="M51.65,406.45c-.92,2.73.41,5.67,2.95,6.51,2.52.82,5.4-.76,6.3-3.46.88-2.63-.5-5.61-2.98-6.45-2.58-.87-5.34.63-6.28,3.4h0Z"/>
          <path class="cls-2" d="M27.15,417.64c1.53,5.44,5.05,9.35,9.5,12.68.59-1.29.41-2.37-.38-3.27-.77-.88-1.6-1.73-2.54-2.43-2.63-1.94-4.98-4.11-6.58-6.99h0Z"/>
          <path class="cls-2" d="M29.35,416.75c1.69,3.07,4.59,5.25,7.87,7.13.03-.54.09-1.13-.17-1.48-.55-.74-1.18-1.47-1.94-1.99-1.95-1.33-3.98-2.54-5.76-3.67h0Z"/>
        </g>
        <g>
          <path class="cls-4" d="M762.25,308.4c.34-.22.59-.36.82-.53,1.82-1.35,3.67-2.67,5.45-4.07,5.81-4.59,10.35-10.14,12.81-17.22,2.2-6.36,2.45-12.69-.61-18.88-3.13-6.32-9.21-10.42-16.96-9.11.28.06.47.09.67.13,4.41.91,7.57,3.39,9.41,7.51.82,1.83,1.15,3.76,1.33,5.73.25,2.59-.18,5.05-1.33,7.38-1.53,3.09-4.16,4.31-7.54,3.57-2.37-.52-4.24-1.88-5.92-3.52-1.81-1.77-3.51-3.66-5.32-5.43-1.87-1.83-4.03-3.16-6.7-3.49-2.03-.26-3.95.06-5.82,1.23.65.27,1.17.47,1.68.71.53.25,1.07.51,1.57.82,5.8,3.47,9.89,8.49,12.86,14.46,1.25,2.51,2.15,5.17,2.57,7.95.39,2.59.69,5.19.93,7.79.14,1.6.08,3.22.11,4.98h0Z"/>
          <path class="cls-5" d="M754.42,263.98c-.74-.51-1.36-1.01-2.04-1.4-7.16-4.18-17.38-.9-20.84,6.69-.14.31-.21.67-.22,1.02-.07,2.44.27,4.82,1.17,7.1.82,2.09,1.92,4,3.87,5.24.71.45,1.54.7,2.51,1.12-.49-1.55-.98-2.78-1.27-4.06-.77-3.43-.48-6.71,1.88-9.51,3.19-3.78,8.43-4.53,12.91-1.93,1.03.6,2.02,1.28,2.98,1.89,1.98-3.47,5.26-5.65,9.66-5.47,4.58.19,7.51,2.83,8.92,7.18,0-.32-.04-.61-.08-.9-.71-6.67-4.93-11.29-11.92-11.69-.56-.03-1.18.04-1.7.23-2.39.87-4.32,2.37-5.82,4.5h0Z"/>
          <path class="cls-5" d="M729.93,271.14c-1.37,4.64-1.23,9.26.32,13.81,2.45,7.21,7.1,12.75,13.3,17.04,4.89,3.37,10.38,5.53,15.88,7.66.07.03.16-.02.24-.02.17-2.2-.81-3.69-2.78-4.56-.97-.43-1.95-.82-2.94-1.21-2.67-1.06-5.25-2.28-7.48-4.11-2.09-1.71-3.56-3.85-4.04-6.54-.37-2.12.81-3.36,2.95-3.21.88.06,1.75.24,2.62.35,1.09.13,2.12-.05,3.02-.72.76-.57.75-1.02.01-1.59-2.84-2.23-6.06-3.59-9.67-3.65-5.05-.08-8.19-2.59-9.9-7.18-.77-2.06-1.27-4.16-1.41-6.37-.04.1-.08.21-.12.32Z"/>
          <path class="cls-4" d="M762.24,275.6c.34,2.86,2.81,4.94,5.46,4.61,2.63-.34,4.55-3,4.2-5.83-.34-2.75-2.86-4.85-5.46-4.54-2.7.32-4.55,2.86-4.21,5.77h0Z"/>
          <path class="cls-2" d="M744.93,296.23c3.72,4.25,8.57,6.27,14.03,7.36-.02-1.42-.64-2.31-1.74-2.79-1.07-.46-2.19-.88-3.34-1.1-3.21-.62-6.27-1.57-8.95-3.48h0Z"/>
          <path class="cls-2" d="M746.54,294.49c2.85,2.04,6.4,2.77,10.17,3.06-.2-.5-.4-1.06-.8-1.26-.82-.43-1.7-.82-2.6-.96-2.33-.36-4.68-.59-6.78-.83h0Z"/>
        </g>
        <g>
          <g>
            <path class="cls-4" d="M562.25,333.4c.34-.22.59-.36.82-.53,1.82-1.35,3.67-2.67,5.45-4.07,5.81-4.59,10.35-10.14,12.81-17.22,2.2-6.36,2.45-12.69-.61-18.88-3.13-6.32-9.21-10.42-16.96-9.11.28.06.47.09.67.13,4.41.91,7.57,3.39,9.41,7.51.82,1.83,1.15,3.76,1.33,5.73.25,2.59-.18,5.05-1.33,7.38-1.53,3.09-4.16,4.31-7.54,3.57-2.37-.52-4.24-1.88-5.92-3.52-1.81-1.77-3.51-3.66-5.32-5.43-1.87-1.83-4.03-3.16-6.7-3.49-2.03-.26-3.95.06-5.82,1.23.65.27,1.17.47,1.68.71.53.25,1.07.51,1.57.82,5.8,3.47,9.89,8.49,12.86,14.46,1.25,2.51,2.15,5.17,2.57,7.95.39,2.59.69,5.19.93,7.79.14,1.6.08,3.22.11,4.98h0Z"/>
            <path class="cls-5" d="M554.42,288.98c-.74-.51-1.36-1.01-2.04-1.4-7.16-4.18-17.38-.9-20.84,6.69-.14.31-.21.67-.22,1.02-.07,2.44.27,4.82,1.17,7.1.82,2.09,1.92,4,3.87,5.24.71.45,1.54.7,2.51,1.12-.49-1.55-.98-2.78-1.27-4.06-.77-3.43-.48-6.71,1.88-9.51,3.19-3.78,8.43-4.53,12.91-1.93,1.03.6,2.02,1.28,2.98,1.89,1.98-3.47,5.26-5.65,9.66-5.47,4.58.19,7.51,2.83,8.92,7.18,0-.32-.04-.61-.08-.9-.71-6.67-4.93-11.29-11.92-11.69-.56-.03-1.18.04-1.7.23-2.39.87-4.32,2.37-5.82,4.5h0Z"/>
            <path class="cls-5" d="M529.93,296.14c-1.37,4.64-1.23,9.26.32,13.81,2.45,7.21,7.1,12.75,13.3,17.04,4.89,3.37,10.38,5.53,15.88,7.66.07.03.16-.02.24-.02.17-2.2-.81-3.69-2.78-4.56-.97-.43-1.95-.82-2.94-1.21-2.67-1.06-5.25-2.28-7.48-4.11-2.09-1.71-3.56-3.85-4.04-6.54-.37-2.12.81-3.36,2.95-3.21.88.06,1.75.24,2.62.35,1.09.13,2.12-.05,3.02-.72.76-.57.75-1.02.01-1.59-2.84-2.23-6.06-3.59-9.67-3.65-5.05-.08-8.19-2.59-9.9-7.18-.77-2.06-1.27-4.16-1.41-6.37-.04.1-.08.21-.12.32Z"/>
            <path class="cls-4" d="M562.24,300.6c.34,2.86,2.81,4.94,5.46,4.61,2.63-.34,4.55-3,4.2-5.83-.34-2.75-2.86-4.85-5.46-4.54-2.7.32-4.55,2.86-4.21,5.77h0Z"/>
            <path class="cls-2" d="M544.93,321.23c3.72,4.25,8.57,6.27,14.03,7.36-.02-1.42-.64-2.31-1.74-2.79-1.07-.46-2.19-.88-3.34-1.1-3.21-.62-6.27-1.57-8.95-3.48h0Z"/>
            <path class="cls-2" d="M546.54,319.49c2.85,2.04,6.4,2.77,10.17,3.06-.2-.5-.4-1.06-.8-1.26-.82-.43-1.7-.82-2.6-.96-2.33-.36-4.68-.59-6.78-.83h0Z"/>
          </g>
          <g>
            <path class="cls-4" d="M637.56,361.06c.4-.05.69-.07.97-.13,2.23-.44,4.46-.83,6.67-1.33,7.22-1.65,13.71-4.71,18.96-10.04,4.72-4.79,7.67-10.4,7.56-17.31-.11-7.05-3.84-13.36-11.4-15.52.23.17.39.29.55.41,3.59,2.72,5.37,6.32,5.27,10.83-.04,2-.58,3.89-1.26,5.75-.89,2.45-2.33,4.49-4.37,6.09-2.71,2.14-5.61,2.1-8.34-.02-1.92-1.49-3.02-3.52-3.84-5.73-.87-2.37-1.59-4.81-2.47-7.19-.9-2.45-2.28-4.59-4.55-6.03-1.73-1.1-3.59-1.64-5.79-1.4.47.52.86.93,1.21,1.36.38.46.74.92,1.07,1.41,3.74,5.63,5.28,11.91,5.4,18.59.05,2.8-.27,5.59-1.09,8.28-.76,2.5-1.6,4.98-2.51,7.43-.56,1.51-1.31,2.94-2.04,4.55h0Z"/>
            <path class="cls-5" d="M649.58,317.59c-.45-.78-.8-1.49-1.24-2.15-4.67-6.85-15.31-8.28-21.69-2.92-.26.22-.48.52-.64.83-1.11,2.17-1.83,4.46-2,6.91-.16,2.24.02,4.44,1.24,6.4.44.71,1.09,1.29,1.78,2.08.22-1.62.31-2.93.6-4.21.78-3.43,2.45-6.27,5.79-7.78,4.5-2.04,9.56-.47,12.49,3.81.68.99,1.28,2.03,1.88,2.99,3.28-2.28,7.18-2.84,11.08-.79,4.06,2.14,5.57,5.78,4.97,10.32.13-.29.22-.57.32-.85,2.23-6.33.4-12.31-5.74-15.68-.49-.27-1.08-.47-1.64-.52-2.53-.24-4.92.28-7.19,1.56h0Z"/>
            <path class="cls-5" d="M624.4,313.53c-3.23,3.6-5.09,7.83-5.65,12.61-.88,7.56.93,14.56,4.69,21.1,2.97,5.15,6.99,9.46,11.04,13.74.05.05.15.06.23.08,1.1-1.91.85-3.68-.55-5.31-.69-.8-1.41-1.58-2.13-2.36-1.95-2.1-3.76-4.31-4.99-6.93-1.15-2.44-1.56-5.01-.84-7.64.57-2.08,2.17-2.69,4.04-1.63.77.43,1.47.97,2.22,1.44.93.59,1.94.87,3.03.65.93-.19,1.12-.59.7-1.43-1.61-3.23-3.93-5.85-7.16-7.45-4.53-2.25-6.28-5.86-5.86-10.74.19-2.19.64-4.3,1.47-6.36-.08.08-.16.15-.24.23Z"/>
            <path class="cls-4" d="M651.65,331.45c-.92,2.73.41,5.67,2.95,6.51,2.52.82,5.4-.76,6.3-3.46.88-2.63-.5-5.61-2.98-6.45-2.58-.87-5.34.63-6.28,3.4h0Z"/>
            <path class="cls-2" d="M627.15,342.64c1.53,5.44,5.05,9.35,9.5,12.68.59-1.29.41-2.37-.38-3.27-.77-.88-1.6-1.73-2.54-2.43-2.63-1.94-4.98-4.11-6.58-6.99h0Z"/>
            <path class="cls-2" d="M629.35,341.75c1.69,3.07,4.59,5.25,7.87,7.13.03-.54.09-1.13-.17-1.48-.55-.74-1.18-1.47-1.94-1.99-1.95-1.33-3.98-2.54-5.76-3.67h0Z"/>
          </g>
        </g>
        <g>
          <g>
            <path class="cls-4" d="M362.25,358.4c.34-.22.59-.36.82-.53,1.82-1.35,3.67-2.67,5.45-4.07,5.81-4.59,10.35-10.14,12.81-17.22,2.2-6.36,2.45-12.69-.61-18.88-3.13-6.32-9.21-10.42-16.96-9.11.28.06.47.09.67.13,4.41.91,7.57,3.39,9.41,7.51.82,1.83,1.15,3.76,1.33,5.73.25,2.59-.18,5.05-1.33,7.38-1.53,3.09-4.16,4.31-7.54,3.57-2.37-.52-4.24-1.88-5.92-3.52-1.81-1.77-3.51-3.66-5.32-5.43-1.87-1.83-4.03-3.16-6.7-3.49-2.03-.26-3.95.06-5.82,1.23.65.27,1.17.47,1.68.71.53.25,1.07.51,1.57.82,5.8,3.47,9.89,8.49,12.86,14.46,1.25,2.51,2.15,5.17,2.57,7.95.39,2.59.69,5.19.93,7.79.14,1.6.08,3.22.11,4.98h0Z"/>
            <path class="cls-5" d="M354.42,313.98c-.74-.51-1.36-1.01-2.04-1.4-7.16-4.18-17.38-.9-20.84,6.69-.14.31-.21.67-.22,1.02-.07,2.44.27,4.82,1.17,7.1.82,2.09,1.92,4,3.87,5.24.71.45,1.54.7,2.51,1.12-.49-1.55-.98-2.78-1.27-4.06-.77-3.43-.48-6.71,1.88-9.51,3.19-3.78,8.43-4.53,12.91-1.93,1.03.6,2.02,1.28,2.98,1.89,1.98-3.47,5.26-5.65,9.66-5.47,4.58.19,7.51,2.83,8.92,7.18,0-.32-.04-.61-.08-.9-.71-6.67-4.93-11.29-11.92-11.69-.56-.03-1.18.04-1.7.23-2.39.87-4.32,2.37-5.82,4.5h0Z"/>
            <path class="cls-5" d="M329.93,321.14c-1.37,4.64-1.23,9.26.32,13.81,2.45,7.21,7.1,12.75,13.3,17.04,4.89,3.37,10.38,5.53,15.88,7.66.07.03.16-.02.24-.02.17-2.2-.81-3.69-2.78-4.56-.97-.43-1.95-.82-2.94-1.21-2.67-1.06-5.25-2.28-7.48-4.11-2.09-1.71-3.56-3.85-4.04-6.54-.37-2.12.81-3.36,2.95-3.21.88.06,1.75.24,2.62.35,1.09.13,2.12-.05,3.02-.72.76-.57.75-1.02.01-1.59-2.84-2.23-6.06-3.59-9.67-3.65-5.05-.08-8.19-2.59-9.9-7.18-.77-2.06-1.27-4.16-1.41-6.37-.04.1-.08.21-.12.32Z"/>
            <path class="cls-4" d="M362.24,325.6c.34,2.86,2.81,4.94,5.46,4.61,2.63-.34,4.55-3,4.2-5.83-.34-2.75-2.86-4.85-5.46-4.54-2.7.32-4.55,2.86-4.21,5.77h0Z"/>
            <path class="cls-2" d="M344.93,346.23c3.72,4.25,8.57,6.27,14.03,7.36-.02-1.42-.64-2.31-1.74-2.79-1.07-.46-2.19-.88-3.34-1.1-3.21-.62-6.27-1.57-8.95-3.48h0Z"/>
            <path class="cls-2" d="M346.54,344.49c2.85,2.04,6.4,2.77,10.17,3.06-.2-.5-.4-1.06-.8-1.26-.82-.43-1.7-.82-2.6-.96-2.33-.36-4.68-.59-6.78-.83h0Z"/>
          </g>
          <g>
            <path class="cls-4" d="M437.56,386.06c.4-.05.69-.07.97-.13,2.23-.44,4.46-.83,6.67-1.33,7.22-1.65,13.71-4.71,18.96-10.04,4.72-4.79,7.67-10.4,7.56-17.31-.11-7.05-3.84-13.36-11.4-15.52.23.17.39.29.55.41,3.59,2.72,5.37,6.32,5.27,10.83-.04,2-.58,3.89-1.26,5.75-.89,2.45-2.33,4.49-4.37,6.09-2.71,2.14-5.61,2.1-8.34-.02-1.92-1.49-3.02-3.52-3.84-5.73-.87-2.37-1.59-4.81-2.47-7.19-.9-2.45-2.28-4.59-4.55-6.03-1.73-1.1-3.59-1.64-5.79-1.4.47.52.86.93,1.21,1.36.38.46.74.92,1.07,1.41,3.74,5.63,5.28,11.91,5.4,18.59.05,2.8-.27,5.59-1.09,8.28-.76,2.5-1.6,4.98-2.51,7.43-.56,1.51-1.31,2.94-2.04,4.55h0Z"/>
            <path class="cls-5" d="M449.58,342.59c-.45-.78-.8-1.49-1.24-2.15-4.67-6.85-15.31-8.28-21.69-2.92-.26.22-.48.52-.64.83-1.11,2.17-1.83,4.46-2,6.91-.16,2.24.02,4.44,1.24,6.4.44.71,1.09,1.29,1.78,2.08.22-1.62.31-2.93.6-4.21.78-3.43,2.45-6.27,5.79-7.78,4.5-2.04,9.56-.47,12.49,3.81.68.99,1.28,2.03,1.88,2.99,3.28-2.28,7.18-2.84,11.08-.79,4.06,2.14,5.57,5.78,4.97,10.32.13-.29.22-.57.32-.85,2.23-6.33.4-12.31-5.74-15.68-.49-.27-1.08-.47-1.64-.52-2.53-.24-4.92.28-7.19,1.56h0Z"/>
            <path class="cls-5" d="M424.4,338.53c-3.23,3.6-5.09,7.83-5.65,12.61-.88,7.56.93,14.56,4.69,21.1,2.97,5.15,6.99,9.46,11.04,13.74.05.05.15.06.23.08,1.1-1.91.85-3.68-.55-5.31-.69-.8-1.41-1.58-2.13-2.36-1.95-2.1-3.76-4.31-4.99-6.93-1.15-2.44-1.56-5.01-.84-7.64.57-2.08,2.17-2.69,4.04-1.63.77.43,1.47.97,2.22,1.44.93.59,1.94.87,3.03.65.93-.19,1.12-.59.7-1.43-1.61-3.23-3.93-5.85-7.16-7.45-4.53-2.25-6.28-5.86-5.86-10.74.19-2.19.64-4.3,1.47-6.36-.08.08-.16.15-.24.23Z"/>
            <path class="cls-4" d="M451.65,356.45c-.92,2.73.41,5.67,2.95,6.51,2.52.82,5.4-.76,6.3-3.46.88-2.63-.5-5.61-2.98-6.45-2.58-.87-5.34.63-6.28,3.4h0Z"/>
            <path class="cls-2" d="M427.15,367.64c1.53,5.44,5.05,9.35,9.5,12.68.59-1.29.41-2.37-.38-3.27-.77-.88-1.6-1.73-2.54-2.43-2.63-1.94-4.98-4.11-6.58-6.99h0Z"/>
            <path class="cls-2" d="M429.35,366.75c1.69,3.07,4.59,5.25,7.87,7.13.03-.54.09-1.13-.17-1.48-.55-.74-1.18-1.47-1.94-1.99-1.95-1.33-3.98-2.54-5.76-3.67h0Z"/>
          </g>
        </g>
        <g>
          <g>
            <path class="cls-4" d="M162.25,383.4c.34-.22.59-.36.82-.53,1.82-1.35,3.67-2.67,5.45-4.07,5.81-4.59,10.35-10.14,12.81-17.22,2.2-6.36,2.45-12.69-.61-18.88-3.13-6.32-9.21-10.42-16.96-9.11.28.06.47.09.67.13,4.41.91,7.57,3.39,9.41,7.51.82,1.83,1.15,3.76,1.33,5.73.25,2.59-.18,5.05-1.33,7.38-1.53,3.09-4.16,4.31-7.54,3.57-2.37-.52-4.24-1.88-5.92-3.52-1.81-1.77-3.51-3.66-5.32-5.43-1.87-1.83-4.03-3.16-6.7-3.49-2.03-.26-3.95.06-5.82,1.23.65.27,1.17.47,1.68.71.53.25,1.07.51,1.57.82,5.8,3.47,9.89,8.49,12.86,14.46,1.25,2.51,2.15,5.17,2.57,7.95.39,2.59.69,5.19.93,7.79.14,1.6.08,3.22.11,4.98h0Z"/>
            <path class="cls-5" d="M154.42,338.98c-.74-.51-1.36-1.01-2.04-1.4-7.16-4.18-17.38-.9-20.84,6.69-.14.31-.21.67-.22,1.02-.07,2.44.27,4.82,1.17,7.1.82,2.09,1.92,4,3.87,5.24.71.45,1.54.7,2.51,1.12-.49-1.55-.98-2.78-1.27-4.06-.77-3.43-.48-6.71,1.88-9.51,3.19-3.78,8.43-4.53,12.91-1.93,1.03.6,2.02,1.28,2.98,1.89,1.98-3.47,5.26-5.65,9.66-5.47,4.58.19,7.51,2.83,8.92,7.18,0-.32-.04-.61-.08-.9-.71-6.67-4.93-11.29-11.92-11.69-.56-.03-1.18.04-1.7.23-2.39.87-4.32,2.37-5.82,4.5h0Z"/>
            <path class="cls-5" d="M129.93,346.14c-1.37,4.64-1.23,9.26.32,13.81,2.45,7.21,7.1,12.75,13.3,17.04,4.89,3.37,10.38,5.53,15.88,7.66.07.03.16-.02.24-.02.17-2.2-.81-3.69-2.78-4.56-.97-.43-1.95-.82-2.94-1.21-2.67-1.06-5.25-2.28-7.48-4.11-2.09-1.71-3.56-3.85-4.04-6.54-.37-2.12.81-3.36,2.95-3.21.88.06,1.75.24,2.62.35,1.09.13,2.12-.05,3.02-.72.76-.57.75-1.02.01-1.59-2.84-2.23-6.06-3.59-9.67-3.65-5.05-.08-8.19-2.59-9.9-7.18-.77-2.06-1.27-4.16-1.41-6.37-.04.1-.08.21-.12.32Z"/>
            <path class="cls-4" d="M162.24,350.6c.34,2.86,2.81,4.94,5.46,4.61,2.63-.34,4.55-3,4.2-5.83-.34-2.75-2.86-4.85-5.46-4.54-2.7.32-4.55,2.86-4.21,5.77h0Z"/>
            <path class="cls-2" d="M144.93,371.23c3.72,4.25,8.57,6.27,14.03,7.36-.02-1.42-.64-2.31-1.74-2.79-1.07-.46-2.19-.88-3.34-1.1-3.21-.62-6.27-1.57-8.95-3.48h0Z"/>
            <path class="cls-2" d="M146.54,369.49c2.85,2.04,6.4,2.77,10.17,3.06-.2-.5-.4-1.06-.8-1.26-.82-.43-1.7-.82-2.6-.96-2.33-.36-4.68-.59-6.78-.83h0Z"/>
          </g>
          <g>
            <path class="cls-4" d="M237.56,411.06c.4-.05.69-.07.97-.13,2.23-.44,4.46-.83,6.67-1.33,7.22-1.65,13.71-4.71,18.96-10.04,4.72-4.79,7.67-10.4,7.56-17.31-.11-7.05-3.84-13.36-11.4-15.52.23.17.39.29.55.41,3.59,2.72,5.37,6.32,5.27,10.83-.04,2-.58,3.89-1.26,5.75-.89,2.45-2.33,4.49-4.37,6.09-2.71,2.14-5.61,2.1-8.34-.02-1.92-1.49-3.02-3.52-3.84-5.73-.87-2.37-1.59-4.81-2.47-7.19-.9-2.45-2.28-4.59-4.55-6.03-1.73-1.1-3.59-1.64-5.79-1.4.47.52.86.93,1.21,1.36.38.46.74.92,1.07,1.41,3.74,5.63,5.28,11.91,5.4,18.59.05,2.8-.27,5.59-1.09,8.28-.76,2.5-1.6,4.98-2.51,7.43-.56,1.51-1.31,2.94-2.04,4.55h0Z"/>
            <path class="cls-5" d="M249.58,367.59c-.45-.78-.8-1.49-1.24-2.15-4.67-6.85-15.31-8.28-21.69-2.92-.26.22-.48.52-.64.83-1.11,2.17-1.83,4.46-2,6.91-.16,2.24.02,4.44,1.24,6.4.44.71,1.09,1.29,1.78,2.08.22-1.62.31-2.93.6-4.21.78-3.43,2.45-6.27,5.79-7.78,4.5-2.04,9.56-.47,12.49,3.81.68.99,1.28,2.03,1.88,2.99,3.28-2.28,7.18-2.84,11.08-.79,4.06,2.14,5.57,5.78,4.97,10.32.13-.29.22-.57.32-.85,2.23-6.33.4-12.31-5.74-15.68-.49-.27-1.08-.47-1.64-.52-2.53-.24-4.92.28-7.19,1.56h0Z"/>
            <path class="cls-5" d="M224.4,363.53c-3.23,3.6-5.09,7.83-5.65,12.61-.88,7.56.93,14.56,4.69,21.1,2.97,5.15,6.99,9.46,11.04,13.74.05.05.15.06.23.08,1.1-1.91.85-3.68-.55-5.31-.69-.8-1.41-1.58-2.13-2.36-1.95-2.1-3.76-4.31-4.99-6.93-1.15-2.44-1.56-5.01-.84-7.64.57-2.08,2.17-2.69,4.04-1.63.77.43,1.47.97,2.22,1.44.93.59,1.94.87,3.03.65.93-.19,1.12-.59.7-1.43-1.61-3.23-3.93-5.85-7.16-7.45-4.53-2.25-6.28-5.86-5.86-10.74.19-2.19.64-4.3,1.47-6.36-.08.08-.16.15-.24.23Z"/>
            <path class="cls-4" d="M251.65,381.45c-.92,2.73.41,5.67,2.95,6.51,2.52.82,5.4-.76,6.3-3.46.88-2.63-.5-5.61-2.98-6.45-2.58-.87-5.34.63-6.28,3.4h0Z"/>
            <path class="cls-2" d="M227.15,392.64c1.53,5.44,5.05,9.35,9.5,12.68.59-1.29.41-2.37-.38-3.27-.77-.88-1.6-1.73-2.54-2.43-2.63-1.94-4.98-4.11-6.58-6.99h0Z"/>
            <path class="cls-2" d="M229.35,391.75c1.69,3.07,4.59,5.25,7.87,7.13.03-.54.09-1.13-.17-1.48-.55-.74-1.18-1.47-1.94-1.99-1.95-1.33-3.98-2.54-5.76-3.67h0Z"/>
          </g>
        </g>
        <g>
          <path class="cls-4" d="M37.56,336.06c.4-.05.69-.07.97-.13,2.23-.44,4.46-.83,6.67-1.33,7.22-1.65,13.71-4.71,18.96-10.04,4.72-4.79,7.67-10.4,7.56-17.31-.11-7.05-3.84-13.36-11.4-15.52.23.17.39.29.55.41,3.59,2.72,5.37,6.32,5.27,10.83-.04,2-.58,3.89-1.26,5.75-.89,2.45-2.33,4.49-4.37,6.09-2.71,2.14-5.61,2.1-8.34-.02-1.92-1.49-3.02-3.52-3.84-5.73-.87-2.37-1.59-4.81-2.47-7.19-.9-2.45-2.28-4.59-4.55-6.03-1.73-1.1-3.59-1.64-5.79-1.4.47.52.86.93,1.21,1.36.38.46.74.92,1.07,1.41,3.74,5.63,5.28,11.91,5.4,18.59.05,2.8-.27,5.59-1.09,8.28-.76,2.5-1.6,4.98-2.51,7.43-.56,1.51-1.31,2.94-2.04,4.55h0Z"/>
          <path class="cls-5" d="M49.58,292.59c-.45-.78-.8-1.49-1.24-2.15-4.67-6.85-15.31-8.28-21.69-2.92-.26.22-.48.52-.64.83-1.11,2.17-1.83,4.46-2,6.91-.16,2.24.02,4.44,1.24,6.4.44.71,1.09,1.29,1.78,2.08.22-1.62.31-2.93.6-4.21.78-3.43,2.45-6.27,5.79-7.78,4.5-2.04,9.56-.47,12.49,3.81.68.99,1.28,2.03,1.88,2.99,3.28-2.28,7.18-2.84,11.08-.79,4.06,2.14,5.57,5.78,4.97,10.32.13-.29.22-.57.32-.85,2.23-6.33.4-12.31-5.74-15.68-.49-.27-1.08-.47-1.64-.52-2.53-.24-4.92.28-7.19,1.56h0Z"/>
          <path class="cls-5" d="M24.4,288.53c-3.23,3.6-5.09,7.83-5.65,12.61-.88,7.56.93,14.56,4.69,21.1,2.97,5.15,6.99,9.46,11.04,13.74.05.05.15.06.23.08,1.1-1.91.85-3.68-.55-5.31-.69-.8-1.41-1.58-2.13-2.36-1.95-2.1-3.76-4.31-4.99-6.93-1.15-2.44-1.56-5.01-.84-7.64.57-2.08,2.17-2.69,4.04-1.63.77.43,1.47.97,2.22,1.44.93.59,1.94.87,3.03.65.93-.19,1.12-.59.7-1.43-1.61-3.23-3.93-5.85-7.16-7.45-4.53-2.25-6.28-5.86-5.86-10.74.19-2.19.64-4.3,1.47-6.36-.08.08-.16.15-.24.23Z"/>
          <path class="cls-4" d="M51.65,306.45c-.92,2.73.41,5.67,2.95,6.51,2.52.82,5.4-.76,6.3-3.46.88-2.63-.5-5.61-2.98-6.45-2.58-.87-5.34.63-6.28,3.4h0Z"/>
          <path class="cls-2" d="M27.15,317.64c1.53,5.44,5.05,9.35,9.5,12.68.59-1.29.41-2.37-.38-3.27-.77-.88-1.6-1.73-2.54-2.43-2.63-1.94-4.98-4.11-6.58-6.99h0Z"/>
          <path class="cls-2" d="M29.35,316.75c1.69,3.07,4.59,5.25,7.87,7.13.03-.54.09-1.13-.17-1.48-.55-.74-1.18-1.47-1.94-1.99-1.95-1.33-3.98-2.54-5.76-3.67h0Z"/>
        </g>
        <g>
          <path class="cls-4" d="M762.25,208.4c.34-.22.59-.36.82-.53,1.82-1.35,3.67-2.67,5.45-4.07,5.81-4.59,10.35-10.14,12.81-17.22,2.2-6.36,2.45-12.69-.61-18.88-3.13-6.32-9.21-10.42-16.96-9.11.28.06.47.09.67.13,4.41.91,7.57,3.39,9.41,7.51.82,1.83,1.15,3.76,1.33,5.73.25,2.59-.18,5.05-1.33,7.38-1.53,3.09-4.16,4.31-7.54,3.57-2.37-.52-4.24-1.88-5.92-3.52-1.81-1.77-3.51-3.66-5.32-5.43-1.87-1.83-4.03-3.16-6.7-3.49-2.03-.26-3.95.06-5.82,1.23.65.27,1.17.47,1.68.71.53.25,1.07.51,1.57.82,5.8,3.47,9.89,8.49,12.86,14.46,1.25,2.51,2.15,5.17,2.57,7.95.39,2.59.69,5.19.93,7.79.14,1.6.08,3.22.11,4.98h0Z"/>
          <path class="cls-5" d="M754.42,163.98c-.74-.51-1.36-1.01-2.04-1.4-7.16-4.18-17.38-.9-20.84,6.69-.14.31-.21.67-.22,1.02-.07,2.44.27,4.82,1.17,7.1.82,2.09,1.92,4,3.87,5.24.71.45,1.54.7,2.51,1.12-.49-1.55-.98-2.78-1.27-4.06-.77-3.43-.48-6.71,1.88-9.51,3.19-3.78,8.43-4.53,12.91-1.93,1.03.6,2.02,1.28,2.98,1.89,1.98-3.47,5.26-5.65,9.66-5.47,4.58.19,7.51,2.83,8.92,7.18,0-.32-.04-.61-.08-.9-.71-6.67-4.93-11.29-11.92-11.69-.56-.03-1.18.04-1.7.23-2.39.87-4.32,2.37-5.82,4.5h0Z"/>
          <path class="cls-5" d="M729.93,171.14c-1.37,4.64-1.23,9.26.32,13.81,2.45,7.21,7.1,12.75,13.3,17.04,4.89,3.37,10.38,5.53,15.88,7.66.07.03.16-.02.24-.02.17-2.2-.81-3.69-2.78-4.56-.97-.43-1.95-.82-2.94-1.21-2.67-1.06-5.25-2.28-7.48-4.11-2.09-1.71-3.56-3.85-4.04-6.54-.37-2.12.81-3.36,2.95-3.21.88.06,1.75.24,2.62.35,1.09.13,2.12-.05,3.02-.72.76-.57.75-1.02.01-1.59-2.84-2.23-6.06-3.59-9.67-3.65-5.05-.08-8.19-2.59-9.9-7.18-.77-2.06-1.27-4.16-1.41-6.37-.04.1-.08.21-.12.32Z"/>
          <path class="cls-4" d="M762.24,175.6c.34,2.86,2.81,4.94,5.46,4.61,2.63-.34,4.55-3,4.2-5.83-.34-2.75-2.86-4.85-5.46-4.54-2.7.32-4.55,2.86-4.21,5.77h0Z"/>
          <path class="cls-2" d="M744.93,196.23c3.72,4.25,8.57,6.27,14.03,7.36-.02-1.42-.64-2.31-1.74-2.79-1.07-.46-2.19-.88-3.34-1.1-3.21-.62-6.27-1.57-8.95-3.48h0Z"/>
          <path class="cls-2" d="M746.54,194.49c2.85,2.04,6.4,2.77,10.17,3.06-.2-.5-.4-1.06-.8-1.26-.82-.43-1.7-.82-2.6-.96-2.33-.36-4.68-.59-6.78-.83h0Z"/>
        </g>
        <g>
          <g>
            <path class="cls-4" d="M562.25,233.4c.34-.22.59-.36.82-.53,1.82-1.35,3.67-2.67,5.45-4.07,5.81-4.59,10.35-10.14,12.81-17.22,2.2-6.36,2.45-12.69-.61-18.88-3.13-6.32-9.21-10.42-16.96-9.11.28.06.47.09.67.13,4.41.91,7.57,3.39,9.41,7.51.82,1.83,1.15,3.76,1.33,5.73.25,2.59-.18,5.05-1.33,7.38-1.53,3.09-4.16,4.31-7.54,3.57-2.37-.52-4.24-1.88-5.92-3.52-1.81-1.77-3.51-3.66-5.32-5.43-1.87-1.83-4.03-3.16-6.7-3.49-2.03-.26-3.95.06-5.82,1.23.65.27,1.17.47,1.68.71.53.25,1.07.51,1.57.82,5.8,3.47,9.89,8.49,12.86,14.46,1.25,2.51,2.15,5.17,2.57,7.95.39,2.59.69,5.19.93,7.79.14,1.6.08,3.22.11,4.98h0Z"/>
            <path class="cls-5" d="M554.42,188.98c-.74-.51-1.36-1.01-2.04-1.4-7.16-4.18-17.38-.9-20.84,6.69-.14.31-.21.67-.22,1.02-.07,2.44.27,4.82,1.17,7.1.82,2.09,1.92,4,3.87,5.24.71.45,1.54.7,2.51,1.12-.49-1.55-.98-2.78-1.27-4.06-.77-3.43-.48-6.71,1.88-9.51,3.19-3.78,8.43-4.53,12.91-1.93,1.03.6,2.02,1.28,2.98,1.89,1.98-3.47,5.26-5.65,9.66-5.47,4.58.19,7.51,2.83,8.92,7.18,0-.32-.04-.61-.08-.9-.71-6.67-4.93-11.29-11.92-11.69-.56-.03-1.18.04-1.7.23-2.39.87-4.32,2.37-5.82,4.5h0Z"/>
            <path class="cls-5" d="M529.93,196.14c-1.37,4.64-1.23,9.26.32,13.81,2.45,7.21,7.1,12.75,13.3,17.04,4.89,3.37,10.38,5.53,15.88,7.66.07.03.16-.02.24-.02.17-2.2-.81-3.69-2.78-4.56-.97-.43-1.95-.82-2.94-1.21-2.67-1.06-5.25-2.28-7.48-4.11-2.09-1.71-3.56-3.85-4.04-6.54-.37-2.12.81-3.36,2.95-3.21.88.06,1.75.24,2.62.35,1.09.13,2.12-.05,3.02-.72.76-.57.75-1.02.01-1.59-2.84-2.23-6.06-3.59-9.67-3.65-5.05-.08-8.19-2.59-9.9-7.18-.77-2.06-1.27-4.16-1.41-6.37-.04.1-.08.21-.12.32Z"/>
            <path class="cls-4" d="M562.24,200.6c.34,2.86,2.81,4.94,5.46,4.61,2.63-.34,4.55-3,4.2-5.83-.34-2.75-2.86-4.85-5.46-4.54-2.7.32-4.55,2.86-4.21,5.77h0Z"/>
            <path class="cls-2" d="M544.93,221.23c3.72,4.25,8.57,6.27,14.03,7.36-.02-1.42-.64-2.31-1.74-2.79-1.07-.46-2.19-.88-3.34-1.1-3.21-.62-6.27-1.57-8.95-3.48h0Z"/>
            <path class="cls-2" d="M546.54,219.49c2.85,2.04,6.4,2.77,10.17,3.06-.2-.5-.4-1.06-.8-1.26-.82-.43-1.7-.82-2.6-.96-2.33-.36-4.68-.59-6.78-.83h0Z"/>
          </g>
          <g>
            <path class="cls-4" d="M637.56,261.06c.4-.05.69-.07.97-.13,2.23-.44,4.46-.83,6.67-1.33,7.22-1.65,13.71-4.71,18.96-10.04,4.72-4.79,7.67-10.4,7.56-17.31-.11-7.05-3.84-13.36-11.4-15.52.23.17.39.29.55.41,3.59,2.72,5.37,6.32,5.27,10.83-.04,2-.58,3.89-1.26,5.75-.89,2.45-2.33,4.49-4.37,6.09-2.71,2.14-5.61,2.1-8.34-.02-1.92-1.49-3.02-3.52-3.84-5.73-.87-2.37-1.59-4.81-2.47-7.19-.9-2.45-2.28-4.59-4.55-6.03-1.73-1.1-3.59-1.64-5.79-1.4.47.52.86.93,1.21,1.36.38.46.74.92,1.07,1.41,3.74,5.63,5.28,11.91,5.4,18.59.05,2.8-.27,5.59-1.09,8.28-.76,2.5-1.6,4.98-2.51,7.43-.56,1.51-1.31,2.94-2.04,4.55h0Z"/>
            <path class="cls-5" d="M649.58,217.59c-.45-.78-.8-1.49-1.24-2.15-4.67-6.85-15.31-8.28-21.69-2.92-.26.22-.48.52-.64.83-1.11,2.17-1.83,4.46-2,6.91-.16,2.24.02,4.44,1.24,6.4.44.71,1.09,1.29,1.78,2.08.22-1.62.31-2.93.6-4.21.78-3.43,2.45-6.27,5.79-7.78,4.5-2.04,9.56-.47,12.49,3.81.68.99,1.28,2.03,1.88,2.99,3.28-2.28,7.18-2.84,11.08-.79,4.06,2.14,5.57,5.78,4.97,10.32.13-.29.22-.57.32-.85,2.23-6.33.4-12.31-5.74-15.68-.49-.27-1.08-.47-1.64-.52-2.53-.24-4.92.28-7.19,1.56h0Z"/>
            <path class="cls-5" d="M624.4,213.53c-3.23,3.6-5.09,7.83-5.65,12.61-.88,7.56.93,14.56,4.69,21.1,2.97,5.15,6.99,9.46,11.04,13.74.05.05.15.06.23.08,1.1-1.91.85-3.68-.55-5.31-.69-.8-1.41-1.58-2.13-2.36-1.95-2.1-3.76-4.31-4.99-6.93-1.15-2.44-1.56-5.01-.84-7.64.57-2.08,2.17-2.69,4.04-1.63.77.43,1.47.97,2.22,1.44.93.59,1.94.87,3.03.65.93-.19,1.12-.59.7-1.43-1.61-3.23-3.93-5.85-7.16-7.45-4.53-2.25-6.28-5.86-5.86-10.74.19-2.19.64-4.3,1.47-6.36-.08.08-.16.15-.24.23Z"/>
            <path class="cls-4" d="M651.65,231.45c-.92,2.73.41,5.67,2.95,6.51,2.52.82,5.4-.76,6.3-3.46.88-2.63-.5-5.61-2.98-6.45-2.58-.87-5.34.63-6.28,3.4h0Z"/>
            <path class="cls-2" d="M627.15,242.64c1.53,5.44,5.05,9.35,9.5,12.68.59-1.29.41-2.37-.38-3.27-.77-.88-1.6-1.73-2.54-2.43-2.63-1.94-4.98-4.11-6.58-6.99h0Z"/>
            <path class="cls-2" d="M629.35,241.75c1.69,3.07,4.59,5.25,7.87,7.13.03-.54.09-1.13-.17-1.48-.55-.74-1.18-1.47-1.94-1.99-1.95-1.33-3.98-2.54-5.76-3.67h0Z"/>
          </g>
        </g>
        <g>
          <g>
            <path class="cls-4" d="M362.25,258.4c.34-.22.59-.36.82-.53,1.82-1.35,3.67-2.67,5.45-4.07,5.81-4.59,10.35-10.14,12.81-17.22,2.2-6.36,2.45-12.69-.61-18.88-3.13-6.32-9.21-10.42-16.96-9.11.28.06.47.09.67.13,4.41.91,7.57,3.39,9.41,7.51.82,1.83,1.15,3.76,1.33,5.73.25,2.59-.18,5.05-1.33,7.38-1.53,3.09-4.16,4.31-7.54,3.57-2.37-.52-4.24-1.88-5.92-3.52-1.81-1.77-3.51-3.66-5.32-5.43-1.87-1.83-4.03-3.16-6.7-3.49-2.03-.26-3.95.06-5.82,1.23.65.27,1.17.47,1.68.71.53.25,1.07.51,1.57.82,5.8,3.47,9.89,8.49,12.86,14.46,1.25,2.51,2.15,5.17,2.57,7.95.39,2.59.69,5.19.93,7.79.14,1.6.08,3.22.11,4.98h0Z"/>
            <path class="cls-5" d="M354.42,213.98c-.74-.51-1.36-1.01-2.04-1.4-7.16-4.18-17.38-.9-20.84,6.69-.14.31-.21.67-.22,1.02-.07,2.44.27,4.82,1.17,7.1.82,2.09,1.92,4,3.87,5.24.71.45,1.54.7,2.51,1.12-.49-1.55-.98-2.78-1.27-4.06-.77-3.43-.48-6.71,1.88-9.51,3.19-3.78,8.43-4.53,12.91-1.93,1.03.6,2.02,1.28,2.98,1.89,1.98-3.47,5.26-5.65,9.66-5.47,4.58.19,7.51,2.83,8.92,7.18,0-.32-.04-.61-.08-.9-.71-6.67-4.93-11.29-11.92-11.69-.56-.03-1.18.04-1.7.23-2.39.87-4.32,2.37-5.82,4.5h0Z"/>
            <path class="cls-5" d="M329.93,221.14c-1.37,4.64-1.23,9.26.32,13.81,2.45,7.21,7.1,12.75,13.3,17.04,4.89,3.37,10.38,5.53,15.88,7.66.07.03.16-.02.24-.02.17-2.2-.81-3.69-2.78-4.56-.97-.43-1.95-.82-2.94-1.21-2.67-1.06-5.25-2.28-7.48-4.11-2.09-1.71-3.56-3.85-4.04-6.54-.37-2.12.81-3.36,2.95-3.21.88.06,1.75.24,2.62.35,1.09.13,2.12-.05,3.02-.72.76-.57.75-1.02.01-1.59-2.84-2.23-6.06-3.59-9.67-3.65-5.05-.08-8.19-2.59-9.9-7.18-.77-2.06-1.27-4.16-1.41-6.37-.04.1-.08.21-.12.32Z"/>
            <path class="cls-4" d="M362.24,225.6c.34,2.86,2.81,4.94,5.46,4.61,2.63-.34,4.55-3,4.2-5.83-.34-2.75-2.86-4.85-5.46-4.54-2.7.32-4.55,2.86-4.21,5.77h0Z"/>
            <path class="cls-2" d="M344.93,246.23c3.72,4.25,8.57,6.27,14.03,7.36-.02-1.42-.64-2.31-1.74-2.79-1.07-.46-2.19-.88-3.34-1.1-3.21-.62-6.27-1.57-8.95-3.48h0Z"/>
            <path class="cls-2" d="M346.54,244.49c2.85,2.04,6.4,2.77,10.17,3.06-.2-.5-.4-1.06-.8-1.26-.82-.43-1.7-.82-2.6-.96-2.33-.36-4.68-.59-6.78-.83h0Z"/>
          </g>
          <g>
            <path class="cls-4" d="M437.56,286.06c.4-.05.69-.07.97-.13,2.23-.44,4.46-.83,6.67-1.33,7.22-1.65,13.71-4.71,18.96-10.04,4.72-4.79,7.67-10.4,7.56-17.31-.11-7.05-3.84-13.36-11.4-15.52.23.17.39.29.55.41,3.59,2.72,5.37,6.32,5.27,10.83-.04,2-.58,3.89-1.26,5.75-.89,2.45-2.33,4.49-4.37,6.09-2.71,2.14-5.61,2.1-8.34-.02-1.92-1.49-3.02-3.52-3.84-5.73-.87-2.37-1.59-4.81-2.47-7.19-.9-2.45-2.28-4.59-4.55-6.03-1.73-1.1-3.59-1.64-5.79-1.4.47.52.86.93,1.21,1.36.38.46.74.92,1.07,1.41,3.74,5.63,5.28,11.91,5.4,18.59.05,2.8-.27,5.59-1.09,8.28-.76,2.5-1.6,4.98-2.51,7.43-.56,1.51-1.31,2.94-2.04,4.55h0Z"/>
            <path class="cls-5" d="M449.58,242.59c-.45-.78-.8-1.49-1.24-2.15-4.67-6.85-15.31-8.28-21.69-2.92-.26.22-.48.52-.64.83-1.11,2.17-1.83,4.46-2,6.91-.16,2.24.02,4.44,1.24,6.4.44.71,1.09,1.29,1.78,2.08.22-1.62.31-2.93.6-4.21.78-3.43,2.45-6.27,5.79-7.78,4.5-2.04,9.56-.47,12.49,3.81.68.99,1.28,2.03,1.88,2.99,3.28-2.28,7.18-2.84,11.08-.79,4.06,2.14,5.57,5.78,4.97,10.32.13-.29.22-.57.32-.85,2.23-6.33.4-12.31-5.74-15.68-.49-.27-1.08-.47-1.64-.52-2.53-.24-4.92.28-7.19,1.56h0Z"/>
            <path class="cls-5" d="M424.4,238.53c-3.23,3.6-5.09,7.83-5.65,12.61-.88,7.56.93,14.56,4.69,21.1,2.97,5.15,6.99,9.46,11.04,13.74.05.05.15.06.23.08,1.1-1.91.85-3.68-.55-5.31-.69-.8-1.41-1.58-2.13-2.36-1.95-2.1-3.76-4.31-4.99-6.93-1.15-2.44-1.56-5.01-.84-7.64.57-2.08,2.17-2.69,4.04-1.63.77.43,1.47.97,2.22,1.44.93.59,1.94.87,3.03.65.93-.19,1.12-.59.7-1.43-1.61-3.23-3.93-5.85-7.16-7.45-4.53-2.25-6.28-5.86-5.86-10.74.19-2.19.64-4.3,1.47-6.36-.08.08-.16.15-.24.23Z"/>
            <path class="cls-4" d="M451.65,256.45c-.92,2.73.41,5.67,2.95,6.51,2.52.82,5.4-.76,6.3-3.46.88-2.63-.5-5.61-2.98-6.45-2.58-.87-5.34.63-6.28,3.4h0Z"/>
            <path class="cls-2" d="M427.15,267.64c1.53,5.44,5.05,9.35,9.5,12.68.59-1.29.41-2.37-.38-3.27-.77-.88-1.6-1.73-2.54-2.43-2.63-1.94-4.98-4.11-6.58-6.99h0Z"/>
            <path class="cls-2" d="M429.35,266.75c1.69,3.07,4.59,5.25,7.87,7.13.03-.54.09-1.13-.17-1.48-.55-.74-1.18-1.47-1.94-1.99-1.95-1.33-3.98-2.54-5.76-3.67h0Z"/>
          </g>
        </g>
        <g>
          <g>
            <path class="cls-4" d="M162.25,283.4c.34-.22.59-.36.82-.53,1.82-1.35,3.67-2.67,5.45-4.07,5.81-4.59,10.35-10.14,12.81-17.22,2.2-6.36,2.45-12.69-.61-18.88-3.13-6.32-9.21-10.42-16.96-9.11.28.06.47.09.67.13,4.41.91,7.57,3.39,9.41,7.51.82,1.83,1.15,3.76,1.33,5.73.25,2.59-.18,5.05-1.33,7.38-1.53,3.09-4.16,4.31-7.54,3.57-2.37-.52-4.24-1.88-5.92-3.52-1.81-1.77-3.51-3.66-5.32-5.43-1.87-1.83-4.03-3.16-6.7-3.49-2.03-.26-3.95.06-5.82,1.23.65.27,1.17.47,1.68.71.53.25,1.07.51,1.57.82,5.8,3.47,9.89,8.49,12.86,14.46,1.25,2.51,2.15,5.17,2.57,7.95.39,2.59.69,5.19.93,7.79.14,1.6.08,3.22.11,4.98h0Z"/>
            <path class="cls-5" d="M154.42,238.98c-.74-.51-1.36-1.01-2.04-1.4-7.16-4.18-17.38-.9-20.84,6.69-.14.31-.21.67-.22,1.02-.07,2.44.27,4.82,1.17,7.1.82,2.09,1.92,4,3.87,5.24.71.45,1.54.7,2.51,1.12-.49-1.55-.98-2.78-1.27-4.06-.77-3.43-.48-6.71,1.88-9.51,3.19-3.78,8.43-4.53,12.91-1.93,1.03.6,2.02,1.28,2.98,1.89,1.98-3.47,5.26-5.65,9.66-5.47,4.58.19,7.51,2.83,8.92,7.18,0-.32-.04-.61-.08-.9-.71-6.67-4.93-11.29-11.92-11.69-.56-.03-1.18.04-1.7.23-2.39.87-4.32,2.37-5.82,4.5h0Z"/>
            <path class="cls-5" d="M129.93,246.14c-1.37,4.64-1.23,9.26.32,13.81,2.45,7.21,7.1,12.75,13.3,17.04,4.89,3.37,10.38,5.53,15.88,7.66.07.03.16-.02.24-.02.17-2.2-.81-3.69-2.78-4.56-.97-.43-1.95-.82-2.94-1.21-2.67-1.06-5.25-2.28-7.48-4.11-2.09-1.71-3.56-3.85-4.04-6.54-.37-2.12.81-3.36,2.95-3.21.88.06,1.75.24,2.62.35,1.09.13,2.12-.05,3.02-.72.76-.57.75-1.02.01-1.59-2.84-2.23-6.06-3.59-9.67-3.65-5.05-.08-8.19-2.59-9.9-7.18-.77-2.06-1.27-4.16-1.41-6.37-.04.1-.08.21-.12.32Z"/>
            <path class="cls-4" d="M162.24,250.6c.34,2.86,2.81,4.94,5.46,4.61,2.63-.34,4.55-3,4.2-5.83-.34-2.75-2.86-4.85-5.46-4.54-2.7.32-4.55,2.86-4.21,5.77h0Z"/>
            <path class="cls-2" d="M144.93,271.23c3.72,4.25,8.57,6.27,14.03,7.36-.02-1.42-.64-2.31-1.74-2.79-1.07-.46-2.19-.88-3.34-1.1-3.21-.62-6.27-1.57-8.95-3.48h0Z"/>
            <path class="cls-2" d="M146.54,269.49c2.85,2.04,6.4,2.77,10.17,3.06-.2-.5-.4-1.06-.8-1.26-.82-.43-1.7-.82-2.6-.96-2.33-.36-4.68-.59-6.78-.83h0Z"/>
          </g>
          <g>
            <path class="cls-4" d="M237.56,311.06c.4-.05.69-.07.97-.13,2.23-.44,4.46-.83,6.67-1.33,7.22-1.65,13.71-4.71,18.96-10.04,4.72-4.79,7.67-10.4,7.56-17.31-.11-7.05-3.84-13.36-11.4-15.52.23.17.39.29.55.41,3.59,2.72,5.37,6.32,5.27,10.83-.04,2-.58,3.89-1.26,5.75-.89,2.45-2.33,4.49-4.37,6.09-2.71,2.14-5.61,2.1-8.34-.02-1.92-1.49-3.02-3.52-3.84-5.73-.87-2.37-1.59-4.81-2.47-7.19-.9-2.45-2.28-4.59-4.55-6.03-1.73-1.1-3.59-1.64-5.79-1.4.47.52.86.93,1.21,1.36.38.46.74.92,1.07,1.41,3.74,5.63,5.28,11.91,5.4,18.59.05,2.8-.27,5.59-1.09,8.28-.76,2.5-1.6,4.98-2.51,7.43-.56,1.51-1.31,2.94-2.04,4.55h0Z"/>
            <path class="cls-5" d="M249.58,267.59c-.45-.78-.8-1.49-1.24-2.15-4.67-6.85-15.31-8.28-21.69-2.92-.26.22-.48.52-.64.83-1.11,2.17-1.83,4.46-2,6.91-.16,2.24.02,4.44,1.24,6.4.44.71,1.09,1.29,1.78,2.08.22-1.62.31-2.93.6-4.21.78-3.43,2.45-6.27,5.79-7.78,4.5-2.04,9.56-.47,12.49,3.81.68.99,1.28,2.03,1.88,2.99,3.28-2.28,7.18-2.84,11.08-.79,4.06,2.14,5.57,5.78,4.97,10.32.13-.29.22-.57.32-.85,2.23-6.33.4-12.31-5.74-15.68-.49-.27-1.08-.47-1.64-.52-2.53-.24-4.92.28-7.19,1.56h0Z"/>
            <path class="cls-5" d="M224.4,263.53c-3.23,3.6-5.09,7.83-5.65,12.61-.88,7.56.93,14.56,4.69,21.1,2.97,5.15,6.99,9.46,11.04,13.74.05.05.15.06.23.08,1.1-1.91.85-3.68-.55-5.31-.69-.8-1.41-1.58-2.13-2.36-1.95-2.1-3.76-4.31-4.99-6.93-1.15-2.44-1.56-5.01-.84-7.64.57-2.08,2.17-2.69,4.04-1.63.77.43,1.47.97,2.22,1.44.93.59,1.94.87,3.03.65.93-.19,1.12-.59.7-1.43-1.61-3.23-3.93-5.85-7.16-7.45-4.53-2.25-6.28-5.86-5.86-10.74.19-2.19.64-4.3,1.47-6.36-.08.08-.16.15-.24.23Z"/>
            <path class="cls-4" d="M251.65,281.45c-.92,2.73.41,5.67,2.95,6.51,2.52.82,5.4-.76,6.3-3.46.88-2.63-.5-5.61-2.98-6.45-2.58-.87-5.34.63-6.28,3.4h0Z"/>
            <path class="cls-2" d="M227.15,292.64c1.53,5.44,5.05,9.35,9.5,12.68.59-1.29.41-2.37-.38-3.27-.77-.88-1.6-1.73-2.54-2.43-2.63-1.94-4.98-4.11-6.58-6.99h0Z"/>
            <path class="cls-2" d="M229.35,291.75c1.69,3.07,4.59,5.25,7.87,7.13.03-.54.09-1.13-.17-1.48-.55-.74-1.18-1.47-1.94-1.99-1.95-1.33-3.98-2.54-5.76-3.67h0Z"/>
          </g>
        </g>
        <g>
          <path class="cls-4" d="M37.56,236.06c.4-.05.69-.07.97-.13,2.23-.44,4.46-.83,6.67-1.33,7.22-1.65,13.71-4.71,18.96-10.04,4.72-4.79,7.67-10.4,7.56-17.31-.11-7.05-3.84-13.36-11.4-15.52.23.17.39.29.55.41,3.59,2.72,5.37,6.32,5.27,10.83-.04,2-.58,3.89-1.26,5.75-.89,2.45-2.33,4.49-4.37,6.09-2.71,2.14-5.61,2.1-8.34-.02-1.92-1.49-3.02-3.52-3.84-5.73-.87-2.37-1.59-4.81-2.47-7.19-.9-2.45-2.28-4.59-4.55-6.03-1.73-1.1-3.59-1.64-5.79-1.4.47.52.86.93,1.21,1.36.38.46.74.92,1.07,1.41,3.74,5.63,5.28,11.91,5.4,18.59.05,2.8-.27,5.59-1.09,8.28-.76,2.5-1.6,4.98-2.51,7.43-.56,1.51-1.31,2.94-2.04,4.55h0Z"/>
          <path class="cls-5" d="M49.58,192.59c-.45-.78-.8-1.49-1.24-2.15-4.67-6.85-15.31-8.28-21.69-2.92-.26.22-.48.52-.64.83-1.11,2.17-1.83,4.46-2,6.91-.16,2.24.02,4.44,1.24,6.4.44.71,1.09,1.29,1.78,2.08.22-1.62.31-2.93.6-4.21.78-3.43,2.45-6.27,5.79-7.78,4.5-2.04,9.56-.47,12.49,3.81.68.99,1.28,2.03,1.88,2.99,3.28-2.28,7.18-2.84,11.08-.79,4.06,2.14,5.57,5.78,4.97,10.32.13-.29.22-.57.32-.85,2.23-6.33.4-12.31-5.74-15.68-.49-.27-1.08-.47-1.64-.52-2.53-.24-4.92.28-7.19,1.56h0Z"/>
          <path class="cls-5" d="M24.4,188.53c-3.23,3.6-5.09,7.83-5.65,12.61-.88,7.56.93,14.56,4.69,21.1,2.97,5.15,6.99,9.46,11.04,13.74.05.05.15.06.23.08,1.1-1.91.85-3.68-.55-5.31-.69-.8-1.41-1.58-2.13-2.36-1.95-2.1-3.76-4.31-4.99-6.93-1.15-2.44-1.56-5.01-.84-7.64.57-2.08,2.17-2.69,4.04-1.63.77.43,1.47.97,2.22,1.44.93.59,1.94.87,3.03.65.93-.19,1.12-.59.7-1.43-1.61-3.23-3.93-5.85-7.16-7.45-4.53-2.25-6.28-5.86-5.86-10.74.19-2.19.64-4.3,1.47-6.36-.08.08-.16.15-.24.23Z"/>
          <path class="cls-4" d="M51.65,206.45c-.92,2.73.41,5.67,2.95,6.51,2.52.82,5.4-.76,6.3-3.46.88-2.63-.5-5.61-2.98-6.45-2.58-.87-5.34.63-6.28,3.4h0Z"/>
          <path class="cls-2" d="M27.15,217.64c1.53,5.44,5.05,9.35,9.5,12.68.59-1.29.41-2.37-.38-3.27-.77-.88-1.6-1.73-2.54-2.43-2.63-1.94-4.98-4.11-6.58-6.99h0Z"/>
          <path class="cls-2" d="M29.35,216.75c1.69,3.07,4.59,5.25,7.87,7.13.03-.54.09-1.13-.17-1.48-.55-.74-1.18-1.47-1.94-1.99-1.95-1.33-3.98-2.54-5.76-3.67h0Z"/>
        </g>
        <g>
          <path class="cls-4" d="M762.25,108.4c.34-.22.59-.36.82-.53,1.82-1.35,3.67-2.67,5.45-4.07,5.81-4.59,10.35-10.14,12.81-17.22,2.2-6.36,2.45-12.69-.61-18.88-3.13-6.32-9.21-10.42-16.96-9.11.28.06.47.09.67.13,4.41.91,7.57,3.39,9.41,7.51.82,1.83,1.15,3.76,1.33,5.73.25,2.59-.18,5.05-1.33,7.38-1.53,3.09-4.16,4.31-7.54,3.57-2.37-.52-4.24-1.88-5.92-3.52-1.81-1.77-3.51-3.66-5.32-5.43-1.87-1.83-4.03-3.16-6.7-3.49-2.03-.26-3.95.06-5.82,1.23.65.27,1.17.47,1.68.71.53.25,1.07.51,1.57.82,5.8,3.47,9.89,8.49,12.86,14.46,1.25,2.51,2.15,5.17,2.57,7.95.39,2.59.69,5.19.93,7.79.14,1.6.08,3.22.11,4.98h0Z"/>
          <path class="cls-5" d="M754.42,63.98c-.74-.51-1.36-1.01-2.04-1.4-7.16-4.18-17.38-.9-20.84,6.69-.14.31-.21.67-.22,1.02-.07,2.44.27,4.82,1.17,7.1.82,2.09,1.92,4,3.87,5.24.71.45,1.54.7,2.51,1.12-.49-1.55-.98-2.78-1.27-4.06-.77-3.43-.48-6.71,1.88-9.51,3.19-3.78,8.43-4.53,12.91-1.93,1.03.6,2.02,1.28,2.98,1.89,1.98-3.47,5.26-5.65,9.66-5.47,4.58.19,7.51,2.83,8.92,7.18,0-.32-.04-.61-.08-.9-.71-6.67-4.93-11.29-11.92-11.69-.56-.03-1.18.04-1.7.23-2.39.87-4.32,2.37-5.82,4.5h0Z"/>
          <path class="cls-5" d="M729.93,71.14c-1.37,4.64-1.23,9.26.32,13.81,2.45,7.21,7.1,12.75,13.3,17.04,4.89,3.37,10.38,5.53,15.88,7.66.07.03.16-.02.24-.02.17-2.2-.81-3.69-2.78-4.56-.97-.43-1.95-.82-2.94-1.21-2.67-1.06-5.25-2.28-7.48-4.11-2.09-1.71-3.56-3.85-4.04-6.54-.37-2.12.81-3.36,2.95-3.21.88.06,1.75.24,2.62.35,1.09.13,2.12-.05,3.02-.72.76-.57.75-1.02.01-1.59-2.84-2.23-6.06-3.59-9.67-3.65-5.05-.08-8.19-2.59-9.9-7.18-.77-2.06-1.27-4.16-1.41-6.37-.04.1-.08.21-.12.32Z"/>
          <path class="cls-4" d="M762.24,75.6c.34,2.86,2.81,4.94,5.46,4.61,2.63-.34,4.55-3,4.2-5.83-.34-2.75-2.86-4.85-5.46-4.54-2.7.32-4.55,2.86-4.21,5.77h0Z"/>
          <path class="cls-2" d="M744.93,96.23c3.72,4.25,8.57,6.27,14.03,7.36-.02-1.42-.64-2.31-1.74-2.79-1.07-.46-2.19-.88-3.34-1.1-3.21-.62-6.27-1.57-8.95-3.48h0Z"/>
          <path class="cls-2" d="M746.54,94.49c2.85,2.04,6.4,2.77,10.17,3.06-.2-.5-.4-1.06-.8-1.26-.82-.43-1.7-.82-2.6-.96-2.33-.36-4.68-.59-6.78-.83h0Z"/>
        </g>
        <g>
          <g>
            <path class="cls-4" d="M562.25,133.4c.34-.22.59-.36.82-.53,1.82-1.35,3.67-2.67,5.45-4.07,5.81-4.59,10.35-10.14,12.81-17.22,2.2-6.36,2.45-12.69-.61-18.88-3.13-6.32-9.21-10.42-16.96-9.11.28.06.47.09.67.13,4.41.91,7.57,3.39,9.41,7.51.82,1.83,1.15,3.76,1.33,5.73.25,2.59-.18,5.05-1.33,7.38-1.53,3.09-4.16,4.31-7.54,3.57-2.37-.52-4.24-1.88-5.92-3.52-1.81-1.77-3.51-3.66-5.32-5.43-1.87-1.83-4.03-3.16-6.7-3.49-2.03-.26-3.95.06-5.82,1.23.65.27,1.17.47,1.68.71.53.25,1.07.51,1.57.82,5.8,3.47,9.89,8.49,12.86,14.46,1.25,2.51,2.15,5.17,2.57,7.95.39,2.59.69,5.19.93,7.79.14,1.6.08,3.22.11,4.98h0Z"/>
            <path class="cls-5" d="M554.42,88.98c-.74-.51-1.36-1.01-2.04-1.4-7.16-4.18-17.38-.9-20.84,6.69-.14.31-.21.67-.22,1.02-.07,2.44.27,4.82,1.17,7.1.82,2.09,1.92,4,3.87,5.24.71.45,1.54.7,2.51,1.12-.49-1.55-.98-2.78-1.27-4.06-.77-3.43-.48-6.71,1.88-9.51,3.19-3.78,8.43-4.53,12.91-1.93,1.03.6,2.02,1.28,2.98,1.89,1.98-3.47,5.26-5.65,9.66-5.47,4.58.19,7.51,2.83,8.92,7.18,0-.32-.04-.61-.08-.9-.71-6.67-4.93-11.29-11.92-11.69-.56-.03-1.18.04-1.7.23-2.39.87-4.32,2.37-5.82,4.5h0Z"/>
            <path class="cls-5" d="M529.93,96.14c-1.37,4.64-1.23,9.26.32,13.81,2.45,7.21,7.1,12.75,13.3,17.04,4.89,3.37,10.38,5.53,15.88,7.66.07.03.16-.02.24-.02.17-2.2-.81-3.69-2.78-4.56-.97-.43-1.95-.82-2.94-1.21-2.67-1.06-5.25-2.28-7.48-4.11-2.09-1.71-3.56-3.85-4.04-6.54-.37-2.12.81-3.36,2.95-3.21.88.06,1.75.24,2.62.35,1.09.13,2.12-.05,3.02-.72.76-.57.75-1.02.01-1.59-2.84-2.23-6.06-3.59-9.67-3.65-5.05-.08-8.19-2.59-9.9-7.18-.77-2.06-1.27-4.16-1.41-6.37-.04.1-.08.21-.12.32Z"/>
            <path class="cls-4" d="M562.24,100.6c.34,2.86,2.81,4.94,5.46,4.61,2.63-.34,4.55-3,4.2-5.83-.34-2.75-2.86-4.85-5.46-4.54-2.7.32-4.55,2.86-4.21,5.77h0Z"/>
            <path class="cls-2" d="M544.93,121.23c3.72,4.25,8.57,6.27,14.03,7.36-.02-1.42-.64-2.31-1.74-2.79-1.07-.46-2.19-.88-3.34-1.1-3.21-.62-6.27-1.57-8.95-3.48h0Z"/>
            <path class="cls-2" d="M546.54,119.49c2.85,2.04,6.4,2.77,10.17,3.06-.2-.5-.4-1.06-.8-1.26-.82-.43-1.7-.82-2.6-.96-2.33-.36-4.68-.59-6.78-.83h0Z"/>
          </g>
          <g>
            <path class="cls-4" d="M637.56,161.06c.4-.05.69-.07.97-.13,2.23-.44,4.46-.83,6.67-1.33,7.22-1.65,13.71-4.71,18.96-10.04,4.72-4.79,7.67-10.4,7.56-17.31-.11-7.05-3.84-13.36-11.4-15.52.23.17.39.29.55.41,3.59,2.72,5.37,6.32,5.27,10.83-.04,2-.58,3.89-1.26,5.75-.89,2.45-2.33,4.49-4.37,6.09-2.71,2.14-5.61,2.1-8.34-.02-1.92-1.49-3.02-3.52-3.84-5.73-.87-2.37-1.59-4.81-2.47-7.19-.9-2.45-2.28-4.59-4.55-6.03-1.73-1.1-3.59-1.64-5.79-1.4.47.52.86.93,1.21,1.36.38.46.74.92,1.07,1.41,3.74,5.63,5.28,11.91,5.4,18.59.05,2.8-.27,5.59-1.09,8.28-.76,2.5-1.6,4.98-2.51,7.43-.56,1.51-1.31,2.94-2.04,4.55h0Z"/>
            <path class="cls-5" d="M649.58,117.59c-.45-.78-.8-1.49-1.24-2.15-4.67-6.85-15.31-8.28-21.69-2.92-.26.22-.48.52-.64.83-1.11,2.17-1.83,4.46-2,6.91-.16,2.24.02,4.44,1.24,6.4.44.71,1.09,1.29,1.78,2.08.22-1.62.31-2.93.6-4.21.78-3.43,2.45-6.27,5.79-7.78,4.5-2.04,9.56-.47,12.49,3.81.68.99,1.28,2.03,1.88,2.99,3.28-2.28,7.18-2.84,11.08-.79,4.06,2.14,5.57,5.78,4.97,10.32.13-.29.22-.57.32-.85,2.23-6.33.4-12.31-5.74-15.68-.49-.27-1.08-.47-1.64-.52-2.53-.24-4.92.28-7.19,1.56h0Z"/>
            <path class="cls-5" d="M624.4,113.53c-3.23,3.6-5.09,7.83-5.65,12.61-.88,7.56.93,14.56,4.69,21.1,2.97,5.15,6.99,9.46,11.04,13.74.05.05.15.06.23.08,1.1-1.91.85-3.68-.55-5.31-.69-.8-1.41-1.58-2.13-2.36-1.95-2.1-3.76-4.31-4.99-6.93-1.15-2.44-1.56-5.01-.84-7.64.57-2.08,2.17-2.69,4.04-1.63.77.43,1.47.97,2.22,1.44.93.59,1.94.87,3.03.65.93-.19,1.12-.59.7-1.43-1.61-3.23-3.93-5.85-7.16-7.45-4.53-2.25-6.28-5.86-5.86-10.74.19-2.19.64-4.3,1.47-6.36-.08.08-.16.15-.24.23Z"/>
            <path class="cls-4" d="M651.65,131.45c-.92,2.73.41,5.67,2.95,6.51,2.52.82,5.4-.76,6.3-3.46.88-2.63-.5-5.61-2.98-6.45-2.58-.87-5.34.63-6.28,3.4h0Z"/>
            <path class="cls-2" d="M627.15,142.64c1.53,5.44,5.05,9.35,9.5,12.68.59-1.29.41-2.37-.38-3.27-.77-.88-1.6-1.73-2.54-2.43-2.63-1.94-4.98-4.11-6.58-6.99h0Z"/>
            <path class="cls-2" d="M629.35,141.75c1.69,3.07,4.59,5.25,7.87,7.13.03-.54.09-1.13-.17-1.48-.55-.74-1.18-1.47-1.94-1.99-1.95-1.33-3.98-2.54-5.76-3.67h0Z"/>
          </g>
        </g>
        <g>
          <g>
            <path class="cls-4" d="M362.25,158.4c.34-.22.59-.36.82-.53,1.82-1.35,3.67-2.67,5.45-4.07,5.81-4.59,10.35-10.14,12.81-17.22,2.2-6.36,2.45-12.69-.61-18.88-3.13-6.32-9.21-10.42-16.96-9.11.28.06.47.09.67.13,4.41.91,7.57,3.39,9.41,7.51.82,1.83,1.15,3.76,1.33,5.73.25,2.59-.18,5.05-1.33,7.38-1.53,3.09-4.16,4.31-7.54,3.57-2.37-.52-4.24-1.88-5.92-3.52-1.81-1.77-3.51-3.66-5.32-5.43-1.87-1.83-4.03-3.16-6.7-3.49-2.03-.26-3.95.06-5.82,1.23.65.27,1.17.47,1.68.71.53.25,1.07.51,1.57.82,5.8,3.47,9.89,8.49,12.86,14.46,1.25,2.51,2.15,5.17,2.57,7.95.39,2.59.69,5.19.93,7.79.14,1.6.08,3.22.11,4.98h0Z"/>
            <path class="cls-5" d="M354.42,113.98c-.74-.51-1.36-1.01-2.04-1.4-7.16-4.18-17.38-.9-20.84,6.69-.14.31-.21.67-.22,1.02-.07,2.44.27,4.82,1.17,7.1.82,2.09,1.92,4,3.87,5.24.71.45,1.54.7,2.51,1.12-.49-1.55-.98-2.78-1.27-4.06-.77-3.43-.48-6.71,1.88-9.51,3.19-3.78,8.43-4.53,12.91-1.93,1.03.6,2.02,1.28,2.98,1.89,1.98-3.47,5.26-5.65,9.66-5.47,4.58.19,7.51,2.83,8.92,7.18,0-.32-.04-.61-.08-.9-.71-6.67-4.93-11.29-11.92-11.69-.56-.03-1.18.04-1.7.23-2.39.87-4.32,2.37-5.82,4.5h0Z"/>
            <path class="cls-5" d="M329.93,121.14c-1.37,4.64-1.23,9.26.32,13.81,2.45,7.21,7.1,12.75,13.3,17.04,4.89,3.37,10.38,5.53,15.88,7.66.07.03.16-.02.24-.02.17-2.2-.81-3.69-2.78-4.56-.97-.43-1.95-.82-2.94-1.21-2.67-1.06-5.25-2.28-7.48-4.11-2.09-1.71-3.56-3.85-4.04-6.54-.37-2.12.81-3.36,2.95-3.21.88.06,1.75.24,2.62.35,1.09.13,2.12-.05,3.02-.72.76-.57.75-1.02.01-1.59-2.84-2.23-6.06-3.59-9.67-3.65-5.05-.08-8.19-2.59-9.9-7.18-.77-2.06-1.27-4.16-1.41-6.37-.04.1-.08.21-.12.32Z"/>
            <path class="cls-4" d="M362.24,125.6c.34,2.86,2.81,4.94,5.46,4.61,2.63-.34,4.55-3,4.2-5.83-.34-2.75-2.86-4.85-5.46-4.54-2.7.32-4.55,2.86-4.21,5.77h0Z"/>
            <path class="cls-2" d="M344.93,146.23c3.72,4.25,8.57,6.27,14.03,7.36-.02-1.42-.64-2.31-1.74-2.79-1.07-.46-2.19-.88-3.34-1.1-3.21-.62-6.27-1.57-8.95-3.48h0Z"/>
            <path class="cls-2" d="M346.54,144.49c2.85,2.04,6.4,2.77,10.17,3.06-.2-.5-.4-1.06-.8-1.26-.82-.43-1.7-.82-2.6-.96-2.33-.36-4.68-.59-6.78-.83h0Z"/>
          </g>
          <g>
            <path class="cls-4" d="M437.56,186.06c.4-.05.69-.07.97-.13,2.23-.44,4.46-.83,6.67-1.33,7.22-1.65,13.71-4.71,18.96-10.04,4.72-4.79,7.67-10.4,7.56-17.31-.11-7.05-3.84-13.36-11.4-15.52.23.17.39.29.55.41,3.59,2.72,5.37,6.32,5.27,10.83-.04,2-.58,3.89-1.26,5.75-.89,2.45-2.33,4.49-4.37,6.09-2.71,2.14-5.61,2.1-8.34-.02-1.92-1.49-3.02-3.52-3.84-5.73-.87-2.37-1.59-4.81-2.47-7.19-.9-2.45-2.28-4.59-4.55-6.03-1.73-1.1-3.59-1.64-5.79-1.4.47.52.86.93,1.21,1.36.38.46.74.92,1.07,1.41,3.74,5.63,5.28,11.91,5.4,18.59.05,2.8-.27,5.59-1.09,8.28-.76,2.5-1.6,4.98-2.51,7.43-.56,1.51-1.31,2.94-2.04,4.55h0Z"/>
            <path class="cls-5" d="M449.58,142.59c-.45-.78-.8-1.49-1.24-2.15-4.67-6.85-15.31-8.28-21.69-2.92-.26.22-.48.52-.64.83-1.11,2.17-1.83,4.46-2,6.91-.16,2.24.02,4.44,1.24,6.4.44.71,1.09,1.29,1.78,2.08.22-1.62.31-2.93.6-4.21.78-3.43,2.45-6.27,5.79-7.78,4.5-2.04,9.56-.47,12.49,3.81.68.99,1.28,2.03,1.88,2.99,3.28-2.28,7.18-2.84,11.08-.79,4.06,2.14,5.57,5.78,4.97,10.32.13-.29.22-.57.32-.85,2.23-6.33.4-12.31-5.74-15.68-.49-.27-1.08-.47-1.64-.52-2.53-.24-4.92.28-7.19,1.56h0Z"/>
            <path class="cls-5" d="M424.4,138.53c-3.23,3.6-5.09,7.83-5.65,12.61-.88,7.56.93,14.56,4.69,21.1,2.97,5.15,6.99,9.46,11.04,13.74.05.05.15.06.23.08,1.1-1.91.85-3.68-.55-5.31-.69-.8-1.41-1.58-2.13-2.36-1.95-2.1-3.76-4.31-4.99-6.93-1.15-2.44-1.56-5.01-.84-7.64.57-2.08,2.17-2.69,4.04-1.63.77.43,1.47.97,2.22,1.44.93.59,1.94.87,3.03.65.93-.19,1.12-.59.7-1.43-1.61-3.23-3.93-5.85-7.16-7.45-4.53-2.25-6.28-5.86-5.86-10.74.19-2.19.64-4.3,1.47-6.36-.08.08-.16.15-.24.23Z"/>
            <path class="cls-4" d="M451.65,156.45c-.92,2.73.41,5.67,2.95,6.51,2.52.82,5.4-.76,6.3-3.46.88-2.63-.5-5.61-2.98-6.45-2.58-.87-5.34.63-6.28,3.4h0Z"/>
            <path class="cls-2" d="M427.15,167.64c1.53,5.44,5.05,9.35,9.5,12.68.59-1.29.41-2.37-.38-3.27-.77-.88-1.6-1.73-2.54-2.43-2.63-1.94-4.98-4.11-6.58-6.99h0Z"/>
            <path class="cls-2" d="M429.35,166.75c1.69,3.07,4.59,5.25,7.87,7.13.03-.54.09-1.13-.17-1.48-.55-.74-1.18-1.47-1.94-1.99-1.95-1.33-3.98-2.54-5.76-3.67h0Z"/>
          </g>
        </g>
        <g>
          <g>
            <path class="cls-4" d="M162.25,183.4c.34-.22.59-.36.82-.53,1.82-1.35,3.67-2.67,5.45-4.07,5.81-4.59,10.35-10.14,12.81-17.22,2.2-6.36,2.45-12.69-.61-18.88-3.13-6.32-9.21-10.42-16.96-9.11.28.06.47.09.67.13,4.41.91,7.57,3.39,9.41,7.51.82,1.83,1.15,3.76,1.33,5.73.25,2.59-.18,5.05-1.33,7.38-1.53,3.09-4.16,4.31-7.54,3.57-2.37-.52-4.24-1.88-5.92-3.52-1.81-1.77-3.51-3.66-5.32-5.43-1.87-1.83-4.03-3.16-6.7-3.49-2.03-.26-3.95.06-5.82,1.23.65.27,1.17.47,1.68.71.53.25,1.07.51,1.57.82,5.8,3.47,9.89,8.49,12.86,14.46,1.25,2.51,2.15,5.17,2.57,7.95.39,2.59.69,5.19.93,7.79.14,1.6.08,3.22.11,4.98h0Z"/>
            <path class="cls-5" d="M154.42,138.98c-.74-.51-1.36-1.01-2.04-1.4-7.16-4.18-17.38-.9-20.84,6.69-.14.31-.21.67-.22,1.02-.07,2.44.27,4.82,1.17,7.1.82,2.09,1.92,4,3.87,5.24.71.45,1.54.7,2.51,1.12-.49-1.55-.98-2.78-1.27-4.06-.77-3.43-.48-6.71,1.88-9.51,3.19-3.78,8.43-4.53,12.91-1.93,1.03.6,2.02,1.28,2.98,1.89,1.98-3.47,5.26-5.65,9.66-5.47,4.58.19,7.51,2.83,8.92,7.18,0-.32-.04-.61-.08-.9-.71-6.67-4.93-11.29-11.92-11.69-.56-.03-1.18.04-1.7.23-2.39.87-4.32,2.37-5.82,4.5h0Z"/>
            <path class="cls-5" d="M129.93,146.14c-1.37,4.64-1.23,9.26.32,13.81,2.45,7.21,7.1,12.75,13.3,17.04,4.89,3.37,10.38,5.53,15.88,7.66.07.03.16-.02.24-.02.17-2.2-.81-3.69-2.78-4.56-.97-.43-1.95-.82-2.94-1.21-2.67-1.06-5.25-2.28-7.48-4.11-2.09-1.71-3.56-3.85-4.04-6.54-.37-2.12.81-3.36,2.95-3.21.88.06,1.75.24,2.62.35,1.09.13,2.12-.05,3.02-.72.76-.57.75-1.02.01-1.59-2.84-2.23-6.06-3.59-9.67-3.65-5.05-.08-8.19-2.59-9.9-7.18-.77-2.06-1.27-4.16-1.41-6.37-.04.1-.08.21-.12.32Z"/>
            <path class="cls-4" d="M162.24,150.6c.34,2.86,2.81,4.94,5.46,4.61,2.63-.34,4.55-3,4.2-5.83-.34-2.75-2.86-4.85-5.46-4.54-2.7.32-4.55,2.86-4.21,5.77h0Z"/>
            <path class="cls-2" d="M144.93,171.23c3.72,4.25,8.57,6.27,14.03,7.36-.02-1.42-.64-2.31-1.74-2.79-1.07-.46-2.19-.88-3.34-1.1-3.21-.62-6.27-1.57-8.95-3.48h0Z"/>
            <path class="cls-2" d="M146.54,169.49c2.85,2.04,6.4,2.77,10.17,3.06-.2-.5-.4-1.06-.8-1.26-.82-.43-1.7-.82-2.6-.96-2.33-.36-4.68-.59-6.78-.83h0Z"/>
          </g>
          <g>
            <path class="cls-4" d="M237.56,211.06c.4-.05.69-.07.97-.13,2.23-.44,4.46-.83,6.67-1.33,7.22-1.65,13.71-4.71,18.96-10.04,4.72-4.79,7.67-10.4,7.56-17.31-.11-7.05-3.84-13.36-11.4-15.52.23.17.39.29.55.41,3.59,2.72,5.37,6.32,5.27,10.83-.04,2-.58,3.89-1.26,5.75-.89,2.45-2.33,4.49-4.37,6.09-2.71,2.14-5.61,2.1-8.34-.02-1.92-1.49-3.02-3.52-3.84-5.73-.87-2.37-1.59-4.81-2.47-7.19-.9-2.45-2.28-4.59-4.55-6.03-1.73-1.1-3.59-1.64-5.79-1.4.47.52.86.93,1.21,1.36.38.46.74.92,1.07,1.41,3.74,5.63,5.28,11.91,5.4,18.59.05,2.8-.27,5.59-1.09,8.28-.76,2.5-1.6,4.98-2.51,7.43-.56,1.51-1.31,2.94-2.04,4.55h0Z"/>
            <path class="cls-5" d="M249.58,167.59c-.45-.78-.8-1.49-1.24-2.15-4.67-6.85-15.31-8.28-21.69-2.92-.26.22-.48.52-.64.83-1.11,2.17-1.83,4.46-2,6.91-.16,2.24.02,4.44,1.24,6.4.44.71,1.09,1.29,1.78,2.08.22-1.62.31-2.93.6-4.21.78-3.43,2.45-6.27,5.79-7.78,4.5-2.04,9.56-.47,12.49,3.81.68.99,1.28,2.03,1.88,2.99,3.28-2.28,7.18-2.84,11.08-.79,4.06,2.14,5.57,5.78,4.97,10.32.13-.29.22-.57.32-.85,2.23-6.33.4-12.31-5.74-15.68-.49-.27-1.08-.47-1.64-.52-2.53-.24-4.92.28-7.19,1.56h0Z"/>
            <path class="cls-5" d="M224.4,163.53c-3.23,3.6-5.09,7.83-5.65,12.61-.88,7.56.93,14.56,4.69,21.1,2.97,5.15,6.99,9.46,11.04,13.74.05.05.15.06.23.08,1.1-1.91.85-3.68-.55-5.31-.69-.8-1.41-1.58-2.13-2.36-1.95-2.1-3.76-4.31-4.99-6.93-1.15-2.44-1.56-5.01-.84-7.64.57-2.08,2.17-2.69,4.04-1.63.77.43,1.47.97,2.22,1.44.93.59,1.94.87,3.03.65.93-.19,1.12-.59.7-1.43-1.61-3.23-3.93-5.85-7.16-7.45-4.53-2.25-6.28-5.86-5.86-10.74.19-2.19.64-4.3,1.47-6.36-.08.08-.16.15-.24.23Z"/>
            <path class="cls-4" d="M251.65,181.45c-.92,2.73.41,5.67,2.95,6.51,2.52.82,5.4-.76,6.3-3.46.88-2.63-.5-5.61-2.98-6.45-2.58-.87-5.34.63-6.28,3.4h0Z"/>
            <path class="cls-2" d="M227.15,192.64c1.53,5.44,5.05,9.35,9.5,12.68.59-1.29.41-2.37-.38-3.27-.77-.88-1.6-1.73-2.54-2.43-2.63-1.94-4.98-4.11-6.58-6.99h0Z"/>
            <path class="cls-2" d="M229.35,191.75c1.69,3.07,4.59,5.25,7.87,7.13.03-.54.09-1.13-.17-1.48-.55-.74-1.18-1.47-1.94-1.99-1.95-1.33-3.98-2.54-5.76-3.67h0Z"/>
          </g>
        </g>
        <g>
          <path class="cls-4" d="M37.56,136.06c.4-.05.69-.07.97-.13,2.23-.44,4.46-.83,6.67-1.33,7.22-1.65,13.71-4.71,18.96-10.04,4.72-4.79,7.67-10.4,7.56-17.31-.11-7.05-3.84-13.36-11.4-15.52.23.17.39.29.55.41,3.59,2.72,5.37,6.32,5.27,10.83-.04,2-.58,3.89-1.26,5.75-.89,2.45-2.33,4.49-4.37,6.09-2.71,2.14-5.61,2.1-8.34-.02-1.92-1.49-3.02-3.52-3.84-5.73-.87-2.37-1.59-4.81-2.47-7.19-.9-2.45-2.28-4.59-4.55-6.03-1.73-1.1-3.59-1.64-5.79-1.4.47.52.86.93,1.21,1.36.38.46.74.92,1.07,1.41,3.74,5.63,5.28,11.91,5.4,18.59.05,2.8-.27,5.59-1.09,8.28-.76,2.5-1.6,4.98-2.51,7.43-.56,1.51-1.31,2.94-2.04,4.55h0Z"/>
          <path class="cls-5" d="M49.58,92.59c-.45-.78-.8-1.49-1.24-2.15-4.67-6.85-15.31-8.28-21.69-2.92-.26.22-.48.52-.64.83-1.11,2.17-1.83,4.46-2,6.91-.16,2.24.02,4.44,1.24,6.4.44.71,1.09,1.29,1.78,2.08.22-1.62.31-2.93.6-4.21.78-3.43,2.45-6.27,5.79-7.78,4.5-2.04,9.56-.47,12.49,3.81.68.99,1.28,2.03,1.88,2.99,3.28-2.28,7.18-2.84,11.08-.79,4.06,2.14,5.57,5.78,4.97,10.32.13-.29.22-.57.32-.85,2.23-6.33.4-12.31-5.74-15.68-.49-.27-1.08-.47-1.64-.52-2.53-.24-4.92.28-7.19,1.56h0Z"/>
          <path class="cls-5" d="M24.4,88.53c-3.23,3.6-5.09,7.83-5.65,12.61-.88,7.56.93,14.56,4.69,21.1,2.97,5.15,6.99,9.46,11.04,13.74.05.05.15.06.23.08,1.1-1.91.85-3.68-.55-5.31-.69-.8-1.41-1.58-2.13-2.36-1.95-2.1-3.76-4.31-4.99-6.93-1.15-2.44-1.56-5.01-.84-7.64.57-2.08,2.17-2.69,4.04-1.63.77.43,1.47.97,2.22,1.44.93.59,1.94.87,3.03.65.93-.19,1.12-.59.7-1.43-1.61-3.23-3.93-5.85-7.16-7.45-4.53-2.25-6.28-5.86-5.86-10.74.19-2.19.64-4.3,1.47-6.36-.08.08-.16.15-.24.23Z"/>
          <path class="cls-4" d="M51.65,106.45c-.92,2.73.41,5.67,2.95,6.51,2.52.82,5.4-.76,6.3-3.46.88-2.63-.5-5.61-2.98-6.45-2.58-.87-5.34.63-6.28,3.4h0Z"/>
          <path class="cls-2" d="M27.15,117.64c1.53,5.44,5.05,9.35,9.5,12.68.59-1.29.41-2.37-.38-3.27-.77-.88-1.6-1.73-2.54-2.43-2.63-1.94-4.98-4.11-6.58-6.99h0Z"/>
          <path class="cls-2" d="M29.35,116.75c1.69,3.07,4.59,5.25,7.87,7.13.03-.54.09-1.13-.17-1.48-.55-.74-1.18-1.47-1.94-1.99-1.95-1.33-3.98-2.54-5.76-3.67h0Z"/>
        </g>
        <g>
          <path class="cls-4" d="M762.25,8.4c.34-.22.59-.36.82-.53,1.82-1.35,3.67-2.67,5.45-4.07,5.81-4.59,10.35-10.14,12.81-17.22,2.2-6.36,2.45-12.69-.61-18.88-3.13-6.32-9.21-10.42-16.96-9.11.28.06.47.09.67.13,4.41.91,7.57,3.39,9.41,7.51.82,1.83,1.15,3.76,1.33,5.73.25,2.59-.18,5.05-1.33,7.38-1.53,3.09-4.16,4.31-7.54,3.57-2.37-.52-4.24-1.88-5.92-3.52-1.81-1.77-3.51-3.66-5.32-5.43-1.87-1.83-4.03-3.16-6.7-3.49-2.03-.26-3.95.06-5.82,1.23.65.27,1.17.47,1.68.71.53.25,1.07.51,1.57.82,5.8,3.47,9.89,8.49,12.86,14.46,1.25,2.51,2.15,5.17,2.57,7.95.39,2.59.69,5.19.93,7.79.14,1.6.08,3.22.11,4.98h0Z"/>
          <path class="cls-5" d="M729.93-28.86c-1.37,4.64-1.23,9.26.32,13.81,2.45,7.21,7.1,12.75,13.3,17.04,4.89,3.37,10.38,5.53,15.88,7.66.07.03.16-.02.24-.02.17-2.2-.81-3.69-2.78-4.56-.97-.43-1.95-.82-2.94-1.21-2.67-1.06-5.25-2.28-7.48-4.11-2.09-1.71-3.56-3.85-4.04-6.54-.37-2.12.81-3.36,2.95-3.21.88.06,1.75.24,2.62.35,1.09.13,2.12-.05,3.02-.72.76-.57.75-1.02.01-1.59-2.84-2.23-6.06-3.59-9.67-3.65-5.05-.08-8.19-2.59-9.9-7.18-.77-2.06-1.27-4.16-1.41-6.37-.04.1-.08.21-.12.32Z"/>
          <path class="cls-2" d="M744.93-3.77c3.72,4.25,8.57,6.27,14.03,7.36-.02-1.42-.64-2.31-1.74-2.79-1.07-.46-2.19-.88-3.34-1.1-3.21-.62-6.27-1.57-8.95-3.48h0Z"/>
        </g>
        <g>
          <g>
            <path class="cls-4" d="M562.25,33.4c.34-.22.59-.36.82-.53,1.82-1.35,3.67-2.67,5.45-4.07,5.81-4.59,10.35-10.14,12.81-17.22,2.2-6.36,2.45-12.69-.61-18.88-3.13-6.32-9.21-10.42-16.96-9.11.28.06.47.09.67.13,4.41.91,7.57,3.39,9.41,7.51.82,1.83,1.15,3.76,1.33,5.73.25,2.59-.18,5.05-1.33,7.38-1.53,3.09-4.16,4.31-7.54,3.57-2.37-.52-4.24-1.88-5.92-3.52-1.81-1.77-3.51-3.66-5.32-5.43-1.87-1.83-4.03-3.16-6.7-3.49-2.03-.26-3.95.06-5.82,1.23.65.27,1.17.47,1.68.71.53.25,1.07.51,1.57.82,5.8,3.47,9.89,8.49,12.86,14.46,1.25,2.51,2.15,5.17,2.57,7.95.39,2.59.69,5.19.93,7.79.14,1.6.08,3.22.11,4.98h0Z"/>
            <path class="cls-5" d="M554.42-11.02c-.74-.51-1.36-1.01-2.04-1.4-7.16-4.18-17.38-.9-20.84,6.69-.14.31-.21.67-.22,1.02-.07,2.44.27,4.82,1.17,7.1.82,2.09,1.92,4,3.87,5.24.71.45,1.54.7,2.51,1.12-.49-1.55-.98-2.78-1.27-4.06-.77-3.43-.48-6.71,1.88-9.51,3.19-3.78,8.43-4.53,12.91-1.93,1.03.6,2.02,1.28,2.98,1.89,1.98-3.47,5.26-5.65,9.66-5.47,4.58.19,7.51,2.83,8.92,7.18,0-.32-.04-.61-.08-.9-.71-6.67-4.93-11.29-11.92-11.69-.56-.03-1.18.04-1.7.23-2.39.87-4.32,2.37-5.82,4.5h0Z"/>
            <path class="cls-5" d="M529.93-3.86c-1.37,4.64-1.23,9.26.32,13.81,2.45,7.21,7.1,12.75,13.3,17.04,4.89,3.37,10.38,5.53,15.88,7.66.07.03.16-.02.24-.02.17-2.2-.81-3.69-2.78-4.56-.97-.43-1.95-.82-2.94-1.21-2.67-1.06-5.25-2.28-7.48-4.11-2.09-1.71-3.56-3.85-4.04-6.54-.37-2.12.81-3.36,2.95-3.21.88.06,1.75.24,2.62.35,1.09.13,2.12-.05,3.02-.72.76-.57.75-1.02.01-1.59-2.84-2.23-6.06-3.59-9.67-3.65-5.05-.08-8.19-2.59-9.9-7.18-.77-2.06-1.27-4.16-1.41-6.37-.04.1-.08.21-.12.32Z"/>
            <path class="cls-4" d="M562.24.6c.34,2.86,2.81,4.94,5.46,4.61,2.63-.34,4.55-3,4.2-5.83-.34-2.75-2.86-4.85-5.46-4.54-2.7.32-4.55,2.86-4.21,5.77h0Z"/>
            <path class="cls-2" d="M544.93,21.23c3.72,4.25,8.57,6.27,14.03,7.36-.02-1.42-.64-2.31-1.74-2.79-1.07-.46-2.19-.88-3.34-1.1-3.21-.62-6.27-1.57-8.95-3.48h0Z"/>
            <path class="cls-2" d="M546.54,19.49c2.85,2.04,6.4,2.77,10.17,3.06-.2-.5-.4-1.06-.8-1.26-.82-.43-1.7-.82-2.6-.96-2.33-.36-4.68-.59-6.78-.83h0Z"/>
          </g>
          <g>
            <path class="cls-4" d="M637.56,61.06c.4-.05.69-.07.97-.13,2.23-.44,4.46-.83,6.67-1.33,7.22-1.65,13.71-4.71,18.96-10.04,4.72-4.79,7.67-10.4,7.56-17.31-.11-7.05-3.84-13.36-11.4-15.52.23.17.39.29.55.41,3.59,2.72,5.37,6.32,5.27,10.83-.04,2-.58,3.89-1.26,5.75-.89,2.45-2.33,4.49-4.37,6.09-2.71,2.14-5.61,2.1-8.34-.02-1.92-1.49-3.02-3.52-3.84-5.73-.87-2.37-1.59-4.81-2.47-7.19-.9-2.45-2.28-4.59-4.55-6.03-1.73-1.1-3.59-1.64-5.79-1.4.47.52.86.93,1.21,1.36.38.46.74.92,1.07,1.41,3.74,5.63,5.28,11.91,5.4,18.59.05,2.8-.27,5.59-1.09,8.28-.76,2.5-1.6,4.98-2.51,7.43-.56,1.51-1.31,2.94-2.04,4.55h0Z"/>
            <path class="cls-5" d="M649.58,17.59c-.45-.78-.8-1.49-1.24-2.15-4.67-6.85-15.31-8.28-21.69-2.92-.26.22-.48.52-.64.83-1.11,2.17-1.83,4.46-2,6.91-.16,2.24.02,4.44,1.24,6.4.44.71,1.09,1.29,1.78,2.08.22-1.62.31-2.93.6-4.21.78-3.43,2.45-6.27,5.79-7.78,4.5-2.04,9.56-.47,12.49,3.81.68.99,1.28,2.03,1.88,2.99,3.28-2.28,7.18-2.84,11.08-.79,4.06,2.14,5.57,5.78,4.97,10.32.13-.29.22-.57.32-.85,2.23-6.33.4-12.31-5.74-15.68-.49-.27-1.08-.47-1.64-.52-2.53-.24-4.92.28-7.19,1.56h0Z"/>
            <path class="cls-5" d="M624.4,13.53c-3.23,3.6-5.09,7.83-5.65,12.61-.88,7.56.93,14.56,4.69,21.1,2.97,5.15,6.99,9.46,11.04,13.74.05.05.15.06.23.08,1.1-1.91.85-3.68-.55-5.31-.69-.8-1.41-1.58-2.13-2.36-1.95-2.1-3.76-4.31-4.99-6.93-1.15-2.44-1.56-5.01-.84-7.64.57-2.08,2.17-2.69,4.04-1.63.77.43,1.47.97,2.22,1.44.93.59,1.94.87,3.03.65.93-.19,1.12-.59.7-1.43-1.61-3.23-3.93-5.85-7.16-7.45-4.53-2.25-6.28-5.86-5.86-10.74.19-2.19.64-4.3,1.47-6.36-.08.08-.16.15-.24.23Z"/>
            <path class="cls-4" d="M651.65,31.45c-.92,2.73.41,5.67,2.95,6.51,2.52.82,5.4-.76,6.3-3.46.88-2.63-.5-5.61-2.98-6.45-2.58-.87-5.34.63-6.28,3.4h0Z"/>
            <path class="cls-2" d="M627.15,42.64c1.53,5.44,5.05,9.35,9.5,12.68.59-1.29.41-2.37-.38-3.27-.77-.88-1.6-1.73-2.54-2.43-2.63-1.94-4.98-4.11-6.58-6.99h0Z"/>
            <path class="cls-2" d="M629.35,41.75c1.69,3.07,4.59,5.25,7.87,7.13.03-.54.09-1.13-.17-1.48-.55-.74-1.18-1.47-1.94-1.99-1.95-1.33-3.98-2.54-5.76-3.67h0Z"/>
          </g>
        </g>
        <g>
          <g>
            <path class="cls-4" d="M362.25,58.4c.34-.22.59-.36.82-.53,1.82-1.35,3.67-2.67,5.45-4.07,5.81-4.59,10.35-10.14,12.81-17.22,2.2-6.36,2.45-12.69-.61-18.88-3.13-6.32-9.21-10.42-16.96-9.11.28.06.47.09.67.13,4.41.91,7.57,3.39,9.41,7.51.82,1.83,1.15,3.76,1.33,5.73.25,2.59-.18,5.05-1.33,7.38-1.53,3.09-4.16,4.31-7.54,3.57-2.37-.52-4.24-1.88-5.92-3.52-1.81-1.77-3.51-3.66-5.32-5.43-1.87-1.83-4.03-3.16-6.7-3.49-2.03-.26-3.95.06-5.82,1.23.65.27,1.17.47,1.68.71.53.25,1.07.51,1.57.82,5.8,3.47,9.89,8.49,12.86,14.46,1.25,2.51,2.15,5.17,2.57,7.95.39,2.59.69,5.19.93,7.79.14,1.6.08,3.22.11,4.98h0Z"/>
            <path class="cls-5" d="M354.42,13.98c-.74-.51-1.36-1.01-2.04-1.4-7.16-4.18-17.38-.9-20.84,6.69-.14.31-.21.67-.22,1.02-.07,2.44.27,4.82,1.17,7.1.82,2.09,1.92,4,3.87,5.24.71.45,1.54.7,2.51,1.12-.49-1.55-.98-2.78-1.27-4.06-.77-3.43-.48-6.71,1.88-9.51,3.19-3.78,8.43-4.53,12.91-1.93,1.03.6,2.02,1.28,2.98,1.89,1.98-3.47,5.26-5.65,9.66-5.47,4.58.19,7.51,2.83,8.92,7.18,0-.32-.04-.61-.08-.9-.71-6.67-4.93-11.29-11.92-11.69-.56-.03-1.18.04-1.7.23-2.39.87-4.32,2.37-5.82,4.5h0Z"/>
            <path class="cls-5" d="M329.93,21.14c-1.37,4.64-1.23,9.26.32,13.81,2.45,7.21,7.1,12.75,13.3,17.04,4.89,3.37,10.38,5.53,15.88,7.66.07.03.16-.02.24-.02.17-2.2-.81-3.69-2.78-4.56-.97-.43-1.95-.82-2.94-1.21-2.67-1.06-5.25-2.28-7.48-4.11-2.09-1.71-3.56-3.85-4.04-6.54-.37-2.12.81-3.36,2.95-3.21.88.06,1.75.24,2.62.35,1.09.13,2.12-.05,3.02-.72.76-.57.75-1.02.01-1.59-2.84-2.23-6.06-3.59-9.67-3.65-5.05-.08-8.19-2.59-9.9-7.18-.77-2.06-1.27-4.16-1.41-6.37-.04.1-.08.21-.12.32Z"/>
            <path class="cls-4" d="M362.24,25.6c.34,2.86,2.81,4.94,5.46,4.61,2.63-.34,4.55-3,4.2-5.83-.34-2.75-2.86-4.85-5.46-4.54-2.7.32-4.55,2.86-4.21,5.77h0Z"/>
            <path class="cls-2" d="M344.93,46.23c3.72,4.25,8.57,6.27,14.03,7.36-.02-1.42-.64-2.31-1.74-2.79-1.07-.46-2.19-.88-3.34-1.1-3.21-.62-6.27-1.57-8.95-3.48h0Z"/>
            <path class="cls-2" d="M346.54,44.49c2.85,2.04,6.4,2.77,10.17,3.06-.2-.5-.4-1.06-.8-1.26-.82-.43-1.7-.82-2.6-.96-2.33-.36-4.68-.59-6.78-.83h0Z"/>
          </g>
          <g>
            <path class="cls-4" d="M437.56,86.06c.4-.05.69-.07.97-.13,2.23-.44,4.46-.83,6.67-1.33,7.22-1.65,13.71-4.71,18.96-10.04,4.72-4.79,7.67-10.4,7.56-17.31-.11-7.05-3.84-13.36-11.4-15.52.23.17.39.29.55.41,3.59,2.72,5.37,6.32,5.27,10.83-.04,2-.58,3.89-1.26,5.75-.89,2.45-2.33,4.49-4.37,6.09-2.71,2.14-5.61,2.1-8.34-.02-1.92-1.49-3.02-3.52-3.84-5.73-.87-2.37-1.59-4.81-2.47-7.19-.9-2.45-2.28-4.59-4.55-6.03-1.73-1.1-3.59-1.64-5.79-1.4.47.52.86.93,1.21,1.36.38.46.74.92,1.07,1.41,3.74,5.63,5.28,11.91,5.4,18.59.05,2.8-.27,5.59-1.09,8.28-.76,2.5-1.6,4.98-2.51,7.43-.56,1.51-1.31,2.94-2.04,4.55h0Z"/>
            <path class="cls-5" d="M449.58,42.59c-.45-.78-.8-1.49-1.24-2.15-4.67-6.85-15.31-8.28-21.69-2.92-.26.22-.48.52-.64.83-1.11,2.17-1.83,4.46-2,6.91-.16,2.24.02,4.44,1.24,6.4.44.71,1.09,1.29,1.78,2.08.22-1.62.31-2.93.6-4.21.78-3.43,2.45-6.27,5.79-7.78,4.5-2.04,9.56-.47,12.49,3.81.68.99,1.28,2.03,1.88,2.99,3.28-2.28,7.18-2.84,11.08-.79,4.06,2.14,5.57,5.78,4.97,10.32.13-.29.22-.57.32-.85,2.23-6.33.4-12.31-5.74-15.68-.49-.27-1.08-.47-1.64-.52-2.53-.24-4.92.28-7.19,1.56h0Z"/>
            <path class="cls-5" d="M424.4,38.53c-3.23,3.6-5.09,7.83-5.65,12.61-.88,7.56.93,14.56,4.69,21.1,2.97,5.15,6.99,9.46,11.04,13.74.05.05.15.06.23.08,1.1-1.91.85-3.68-.55-5.31-.69-.8-1.41-1.58-2.13-2.36-1.95-2.1-3.76-4.31-4.99-6.93-1.15-2.44-1.56-5.01-.84-7.64.57-2.08,2.17-2.69,4.04-1.63.77.43,1.47.97,2.22,1.44.93.59,1.94.87,3.03.65.93-.19,1.12-.59.7-1.43-1.61-3.23-3.93-5.85-7.16-7.45-4.53-2.25-6.28-5.86-5.86-10.74.19-2.19.64-4.3,1.47-6.36-.08.08-.16.15-.24.23Z"/>
            <path class="cls-4" d="M451.65,56.45c-.92,2.73.41,5.67,2.95,6.51,2.52.82,5.4-.76,6.3-3.46.88-2.63-.5-5.61-2.98-6.45-2.58-.87-5.34.63-6.28,3.4h0Z"/>
            <path class="cls-2" d="M427.15,67.64c1.53,5.44,5.05,9.35,9.5,12.68.59-1.29.41-2.37-.38-3.27-.77-.88-1.6-1.73-2.54-2.43-2.63-1.94-4.98-4.11-6.58-6.99h0Z"/>
            <path class="cls-2" d="M429.35,66.75c1.69,3.07,4.59,5.25,7.87,7.13.03-.54.09-1.13-.17-1.48-.55-.74-1.18-1.47-1.94-1.99-1.95-1.33-3.98-2.54-5.76-3.67h0Z"/>
          </g>
        </g>
        <g>
          <g>
            <path class="cls-4" d="M162.25,83.4c.34-.22.59-.36.82-.53,1.82-1.35,3.67-2.67,5.45-4.07,5.81-4.59,10.35-10.14,12.81-17.22,2.2-6.36,2.45-12.69-.61-18.88-3.13-6.32-9.21-10.42-16.96-9.11.28.06.47.09.67.13,4.41.91,7.57,3.39,9.41,7.51.82,1.83,1.15,3.76,1.33,5.73.25,2.59-.18,5.05-1.33,7.38-1.53,3.09-4.16,4.31-7.54,3.57-2.37-.52-4.24-1.88-5.92-3.52-1.81-1.77-3.51-3.66-5.32-5.43-1.87-1.83-4.03-3.16-6.7-3.49-2.03-.26-3.95.06-5.82,1.23.65.27,1.17.47,1.68.71.53.25,1.07.51,1.57.82,5.8,3.47,9.89,8.49,12.86,14.46,1.25,2.51,2.15,5.17,2.57,7.95.39,2.59.69,5.19.93,7.79.14,1.6.08,3.22.11,4.98h0Z"/>
            <path class="cls-5" d="M154.42,38.98c-.74-.51-1.36-1.01-2.04-1.4-7.16-4.18-17.38-.9-20.84,6.69-.14.31-.21.67-.22,1.02-.07,2.44.27,4.82,1.17,7.1.82,2.09,1.92,4,3.87,5.24.71.45,1.54.7,2.51,1.12-.49-1.55-.98-2.78-1.27-4.06-.77-3.43-.48-6.71,1.88-9.51,3.19-3.78,8.43-4.53,12.91-1.93,1.03.6,2.02,1.28,2.98,1.89,1.98-3.47,5.26-5.65,9.66-5.47,4.58.19,7.51,2.83,8.92,7.18,0-.32-.04-.61-.08-.9-.71-6.67-4.93-11.29-11.92-11.69-.56-.03-1.18.04-1.7.23-2.39.87-4.32,2.37-5.82,4.5h0Z"/>
            <path class="cls-5" d="M129.93,46.14c-1.37,4.64-1.23,9.26.32,13.81,2.45,7.21,7.1,12.75,13.3,17.04,4.89,3.37,10.38,5.53,15.88,7.66.07.03.16-.02.24-.02.17-2.2-.81-3.69-2.78-4.56-.97-.43-1.95-.82-2.94-1.21-2.67-1.06-5.25-2.28-7.48-4.11-2.09-1.71-3.56-3.85-4.04-6.54-.37-2.12.81-3.36,2.95-3.21.88.06,1.75.24,2.62.35,1.09.13,2.12-.05,3.02-.72.76-.57.75-1.02.01-1.59-2.84-2.23-6.06-3.59-9.67-3.65-5.05-.08-8.19-2.59-9.9-7.18-.77-2.06-1.27-4.16-1.41-6.37-.04.1-.08.21-.12.32Z"/>
            <path class="cls-4" d="M162.24,50.6c.34,2.86,2.81,4.94,5.46,4.61,2.63-.34,4.55-3,4.2-5.83-.34-2.75-2.86-4.85-5.46-4.54-2.7.32-4.55,2.86-4.21,5.77h0Z"/>
            <path class="cls-2" d="M144.93,71.23c3.72,4.25,8.57,6.27,14.03,7.36-.02-1.42-.64-2.31-1.74-2.79-1.07-.46-2.19-.88-3.34-1.1-3.21-.62-6.27-1.57-8.95-3.48h0Z"/>
            <path class="cls-2" d="M146.54,69.49c2.85,2.04,6.4,2.77,10.17,3.06-.2-.5-.4-1.06-.8-1.26-.82-.43-1.7-.82-2.6-.96-2.33-.36-4.68-.59-6.78-.83h0Z"/>
          </g>
          <g>
            <path class="cls-4" d="M237.56,111.06c.4-.05.69-.07.97-.13,2.23-.44,4.46-.83,6.67-1.33,7.22-1.65,13.71-4.71,18.96-10.04,4.72-4.79,7.67-10.4,7.56-17.31-.11-7.05-3.84-13.36-11.4-15.52.23.17.39.29.55.41,3.59,2.72,5.37,6.32,5.27,10.83-.04,2-.58,3.89-1.26,5.75-.89,2.45-2.33,4.49-4.37,6.09-2.71,2.14-5.61,2.1-8.34-.02-1.92-1.49-3.02-3.52-3.84-5.73-.87-2.37-1.59-4.81-2.47-7.19-.9-2.45-2.28-4.59-4.55-6.03-1.73-1.1-3.59-1.64-5.79-1.4.47.52.86.93,1.21,1.36.38.46.74.92,1.07,1.41,3.74,5.63,5.28,11.91,5.4,18.59.05,2.8-.27,5.59-1.09,8.28-.76,2.5-1.6,4.98-2.51,7.43-.56,1.51-1.31,2.94-2.04,4.55h0Z"/>
            <path class="cls-5" d="M249.58,67.59c-.45-.78-.8-1.49-1.24-2.15-4.67-6.85-15.31-8.28-21.69-2.92-.26.22-.48.52-.64.83-1.11,2.17-1.83,4.46-2,6.91-.16,2.24.02,4.44,1.24,6.4.44.71,1.09,1.29,1.78,2.08.22-1.62.31-2.93.6-4.21.78-3.43,2.45-6.27,5.79-7.78,4.5-2.04,9.56-.47,12.49,3.81.68.99,1.28,2.03,1.88,2.99,3.28-2.28,7.18-2.84,11.08-.79,4.06,2.14,5.57,5.78,4.97,10.32.13-.29.22-.57.32-.85,2.23-6.33.4-12.31-5.74-15.68-.49-.27-1.08-.47-1.64-.52-2.53-.24-4.92.28-7.19,1.56h0Z"/>
            <path class="cls-5" d="M224.4,63.53c-3.23,3.6-5.09,7.83-5.65,12.61-.88,7.56.93,14.56,4.69,21.1,2.97,5.15,6.99,9.46,11.04,13.74.05.05.15.06.23.08,1.1-1.91.85-3.68-.55-5.31-.69-.8-1.41-1.58-2.13-2.36-1.95-2.1-3.76-4.31-4.99-6.93-1.15-2.44-1.56-5.01-.84-7.64.57-2.08,2.17-2.69,4.04-1.63.77.43,1.47.97,2.22,1.44.93.59,1.94.87,3.03.65.93-.19,1.12-.59.7-1.43-1.61-3.23-3.93-5.85-7.16-7.45-4.53-2.25-6.28-5.86-5.86-10.74.19-2.19.64-4.3,1.47-6.36-.08.08-.16.15-.24.23Z"/>
            <path class="cls-4" d="M251.65,81.45c-.92,2.73.41,5.67,2.95,6.51,2.52.82,5.4-.76,6.3-3.46.88-2.63-.5-5.61-2.98-6.45-2.58-.87-5.34.63-6.28,3.4h0Z"/>
            <path class="cls-2" d="M227.15,92.64c1.53,5.44,5.05,9.35,9.5,12.68.59-1.29.41-2.37-.38-3.27-.77-.88-1.6-1.73-2.54-2.43-2.63-1.94-4.98-4.11-6.58-6.99h0Z"/>
            <path class="cls-2" d="M229.35,91.75c1.69,3.07,4.59,5.25,7.87,7.13.03-.54.09-1.13-.17-1.48-.55-.74-1.18-1.47-1.94-1.99-1.95-1.33-3.98-2.54-5.76-3.67h0Z"/>
          </g>
        </g>
        <g>
          <path class="cls-4" d="M37.56,36.06c.4-.05.69-.07.97-.13,2.23-.44,4.46-.83,6.67-1.33,7.22-1.65,13.71-4.71,18.96-10.04,4.72-4.79,7.67-10.4,7.56-17.31-.11-7.05-3.84-13.36-11.4-15.52.23.17.39.29.55.41,3.59,2.72,5.37,6.32,5.27,10.83-.04,2-.58,3.89-1.26,5.75-.89,2.45-2.33,4.49-4.37,6.09-2.71,2.14-5.61,2.1-8.34-.02-1.92-1.49-3.02-3.52-3.84-5.73-.87-2.37-1.59-4.81-2.47-7.19-.9-2.45-2.28-4.59-4.55-6.03-1.73-1.1-3.59-1.64-5.79-1.4.47.52.86.93,1.21,1.36.38.46.74.92,1.07,1.41,3.74,5.63,5.28,11.91,5.4,18.59.05,2.8-.27,5.59-1.09,8.28-.76,2.5-1.6,4.98-2.51,7.43-.56,1.51-1.31,2.94-2.04,4.55h0Z"/>
          <path class="cls-5" d="M49.58-7.41c-.45-.78-.8-1.49-1.24-2.15-4.67-6.85-15.31-8.28-21.69-2.92-.26.22-.48.52-.64.83-1.11,2.17-1.83,4.46-2,6.91-.16,2.24.02,4.44,1.24,6.4.44.71,1.09,1.29,1.78,2.08.22-1.62.31-2.93.6-4.21.78-3.43,2.45-6.27,5.79-7.78,4.5-2.04,9.56-.47,12.49,3.81.68.99,1.28,2.03,1.88,2.99,3.28-2.28,7.18-2.84,11.08-.79,4.06,2.14,5.57,5.78,4.97,10.32.13-.29.22-.57.32-.85,2.23-6.33.4-12.31-5.74-15.68-.49-.27-1.08-.47-1.64-.52-2.53-.24-4.92.28-7.19,1.56h0Z"/>
          <path class="cls-5" d="M24.4-11.47c-3.23,3.6-5.09,7.83-5.65,12.61-.88,7.56.93,14.56,4.69,21.1,2.97,5.15,6.99,9.46,11.04,13.74.05.05.15.06.23.08,1.1-1.91.85-3.68-.55-5.31-.69-.8-1.41-1.58-2.13-2.36-1.95-2.1-3.76-4.31-4.99-6.93-1.15-2.44-1.56-5.01-.84-7.64.57-2.08,2.17-2.69,4.04-1.63.77.43,1.47.97,2.22,1.44.93.59,1.94.87,3.03.65.93-.19,1.12-.59.7-1.43-1.61-3.23-3.93-5.85-7.16-7.45-4.53-2.25-6.28-5.86-5.86-10.74.19-2.19.64-4.3,1.47-6.36-.08.08-.16.15-.24.23Z"/>
          <path class="cls-4" d="M51.65,6.45c-.92,2.73.41,5.67,2.95,6.51,2.52.82,5.4-.76,6.3-3.46.88-2.63-.5-5.61-2.98-6.45-2.58-.87-5.34.63-6.28,3.4h0Z"/>
          <path class="cls-2" d="M27.15,17.64c1.53,5.44,5.05,9.35,9.5,12.68.59-1.29.41-2.37-.38-3.27-.77-.88-1.6-1.73-2.54-2.43-2.63-1.94-4.98-4.11-6.58-6.99h0Z"/>
          <path class="cls-2" d="M29.35,16.75c1.69,3.07,4.59,5.25,7.87,7.13.03-.54.09-1.13-.17-1.48-.55-.74-1.18-1.47-1.94-1.99-1.95-1.33-3.98-2.54-5.76-3.67h0Z"/>
        </g>
        <g>
          <path class="cls-4" d="M237.56,11.06c.4-.05.69-.07.97-.13,2.23-.44,4.46-.83,6.67-1.33,7.22-1.65,13.71-4.71,18.96-10.04,4.72-4.79,7.67-10.4,7.56-17.31-.11-7.05-3.84-13.36-11.4-15.52.23.17.39.29.55.41,3.59,2.72,5.37,6.32,5.27,10.83-.04,2-.58,3.89-1.26,5.75-.89,2.45-2.33,4.49-4.37,6.09-2.71,2.14-5.61,2.1-8.34-.02-1.92-1.49-3.02-3.52-3.84-5.73-.87-2.37-1.59-4.81-2.47-7.19-.9-2.45-2.28-4.59-4.55-6.03-1.73-1.1-3.59-1.64-5.79-1.4.47.52.86.93,1.21,1.36.38.46.74.92,1.07,1.41,3.74,5.63,5.28,11.91,5.4,18.59.05,2.8-.27,5.59-1.09,8.28-.76,2.5-1.6,4.98-2.51,7.43-.56,1.51-1.31,2.94-2.04,4.55h0Z"/>
          <path class="cls-5" d="M224.4-36.47c-3.23,3.6-5.09,7.83-5.65,12.61-.88,7.56.93,14.56,4.69,21.1,2.97,5.15,6.99,9.46,11.04,13.74.05.05.15.06.23.08,1.1-1.91.85-3.68-.55-5.31-.69-.8-1.41-1.58-2.13-2.36-1.95-2.1-3.76-4.31-4.99-6.93-1.15-2.44-1.56-5.01-.84-7.64.57-2.08,2.17-2.69,4.04-1.63.77.43,1.47.97,2.22,1.44.93.59,1.94.87,3.03.65.93-.19,1.12-.59.7-1.43-1.61-3.23-3.93-5.85-7.16-7.45-4.53-2.25-6.28-5.86-5.86-10.74.19-2.19.64-4.3,1.47-6.36-.08.08-.16.15-.24.23Z"/>
          <path class="cls-2" d="M227.15-7.36c1.53,5.44,5.05,9.35,9.5,12.68.59-1.29.41-2.37-.38-3.27-.77-.88-1.6-1.73-2.54-2.43-2.63-1.94-4.98-4.11-6.58-6.99h0Z"/>
        </g>
      </g>
    </pattern>
  </defs>
  <rect class="cls-1" width="1366" height="767.98"/>
</svg>