<?xml version="1.0" encoding="UTF-8"?>
<svg id="Layer_1" data-name="Layer 1" xmlns="http://www.w3.org/2000/svg" viewBox="0 0 128 119.39">
  <defs>
    <style>
      .cls-1 {
        fill: #00715d;
      }

      .cls-1, .cls-2, .cls-3 {
        stroke-width: 0px;
      }

      .cls-2 {
        fill: #058789;
      }

      .cls-3 {
        fill: #e17153;
      }
    </style>
  </defs>
  <path class="cls-3" d="M70.08,117.23c.42-4.17,1.03-7.96,1.14-11.77.18-6.2.19-12.41,0-18.61-.21-6.67-1.59-13.18-3.84-19.44-5.34-14.9-13.56-27.86-26.25-37.66-1.1-.85-2.28-1.62-3.47-2.36-1.12-.7-2.29-1.31-3.75-2.13,4.75-2.22,9.34-2.43,14.06-1.26,6.19,1.52,10.91,5.27,14.8,10.1,3.77,4.68,7.24,9.61,11.01,14.28,3.5,4.34,7.53,8.07,12.97,9.95,7.75,2.68,14.29.56,18.76-6.3,3.36-5.15,5.05-10.83,5.19-17,.11-4.7-.12-9.35-1.54-13.88-3.2-10.22-9.93-16.96-20.07-20.33-.45-.15-.9-.29-1.54-.5,18.62-.91,31.81,10.45,37.41,26.2,5.49,15.44,3.13,30.28-3.84,44.64-7.76,15.98-20.02,27.78-34.98,36.97-4.58,2.81-9.31,5.39-13.98,8.07-.59.34-1.22.6-2.09,1.02Z"/>
  <path class="cls-1" d="M64.05,10.4c4.13-4.61,9.1-7.6,14.97-8.98,1.3-.31,2.76-.31,4.08-.07,16.36,2.91,25,14.96,24.81,30.88,0,.7,0,1.4-.07,2.15-2.11-10.65-8.27-17.69-19.01-19.41-10.32-1.65-18.65,2.57-24.29,10.18-2.08-1.71-4.22-3.59-6.49-5.29-9.84-7.37-22.39-7.06-30.96.94-6.34,5.92-7.95,13.58-7.09,21.87.32,3.09,1.12,6.12,1.85,9.92-2.15-1.26-4.05-2.07-5.59-3.33-4.23-3.47-6.29-8.28-7.64-13.43-1.47-5.62-1.61-11.32-.76-17.04.12-.81.39-1.65.81-2.34C18.93-.45,43.93-5.33,59.62,6.52c1.49,1.13,2.82,2.46,4.42,3.88Z"/>
  <path class="cls-1" d="M4.73,19.71c-.29,5.26.3,10.35,1.54,15.41,2.76,11.29,9.44,18.08,21.32,19.69,8.48,1.15,15.68,5.26,21.75,11.3,1.58,1.57,1.46,2.63-.48,3.75-2.3,1.32-4.78,1.45-7.31.84-2.03-.49-4.03-1.16-6.08-1.55-5-.96-8.13,1.63-7.84,6.73.37,6.48,3.24,11.93,7.69,16.54,4.76,4.94,10.49,8.54,16.48,11.78,2.21,1.2,4.41,2.4,6.58,3.68,4.4,2.59,6.29,6.38,5.28,11.51-.18,0-.41.07-.57-.01-12.36-6.55-24.68-13.18-35.26-22.49C14.42,85.05,5.02,70.71,1.26,53.04-1.11,41.88-.16,30.96,4.37,20.42c.11-.24.24-.48.36-.71Z"/>
  <path class="cls-3" d="M79.21,39.97c0-6.94,5.07-12.4,11.52-12.41,6.22,0,11.58,5.65,11.6,12.23.02,6.76-5.25,12.5-11.53,12.56-6.34.05-11.58-5.54-11.58-12.38Z"/>
  <path class="cls-2" d="M32.67,83.71c5.79,5.27,12.72,8.36,20.11,10.71,2.63.84,5.15,2.14,7.55,3.52,2.46,1.42,3.67,3.7,3.33,7.05-12.54-4.1-23.4-10.21-30.98-21.27Z"/>
  <path class="cls-2" d="M36.93,80.07c4.86,1.17,10.34,2.35,15.73,3.86,2.08.58,4.06,1.75,5.86,2.99.87.6,1.19,1.97,1.52,3.2-8.79-1.74-16.97-4.44-23.1-10.05Z"/>
</svg>