<?xml version="1.0" encoding="UTF-8"?>
<svg id="Layer_1" data-name="Layer 1" xmlns="http://www.w3.org/2000/svg" viewBox="0 0 127.81 123.33">
  <defs>
    <style>
      .cls-1 {
        fill: #fff;
        opacity: .04;
        stroke-width: 0px;
      }
    </style>
  </defs>
  <path class="cls-1" d="M90.43,119.32c-.75-4.12-1.22-7.93-2.17-11.62-1.55-6.01-3.26-11.98-5.16-17.88-2.05-6.35-5.19-12.22-9.08-17.61-9.27-12.83-20.76-23-35.67-28.9-1.29-.51-2.64-.92-3.99-1.3-1.27-.36-2.56-.62-4.19-1.01,3.95-3.45,8.3-4.93,13.16-5.11,6.37-.26,11.94,2.04,17.02,5.6,4.92,3.45,9.62,7.22,14.54,10.66,4.57,3.2,9.47,5.66,15.22,5.96,8.19.42,13.88-3.43,16.27-11.26,1.8-5.88,1.85-11.81.27-17.77-1.2-4.55-2.71-8.95-5.33-12.91-5.91-8.93-14.25-13.54-24.92-13.96-.47-.02-.95-.03-1.62-.05,17.64-6.04,33.46,1.21,43.21,14.79,9.56,13.31,11.41,28.22,8.7,43.95-3.02,17.51-11.52,32.24-23.35,45.23-3.62,3.97-7.45,7.76-11.19,11.63-.47.49-1.01.92-1.72,1.56h.01Z"/>
  <path class="cls-1" d="M54.99,18.35c2.69-5.58,6.63-9.83,11.89-12.78,1.16-.66,2.57-1.06,3.9-1.2,16.52-1.74,28.17,7.43,32.41,22.78.19.67.39,1.35.53,2.08-4.98-9.65-12.85-14.7-23.65-13.37-10.37,1.28-17.2,7.64-20.51,16.52-2.47-1.07-5.05-2.28-7.7-3.28-11.5-4.35-23.47-.57-29.48,9.5-4.45,7.45-3.87,15.25-.74,22.98,1.16,2.88,2.77,5.57,4.53,9.02-2.42-.61-4.47-.86-6.29-1.65-5.03-2.16-8.34-6.21-11.07-10.78-2.97-4.99-4.69-10.43-5.46-16.16-.11-.81-.08-1.69.13-2.47C8.63,20.45,31.29,8.83,49.66,15.86c1.75.67,3.39,1.58,5.32,2.5h0Z"/>
  <path class="cls-1" d="M.58,43.76c1.18,5.13,3.16,9.86,5.76,14.38,5.78,10.08,14.09,14.75,25.95,13,8.47-1.25,16.52.7,24.03,4.82,1.95,1.07,2.13,2.12.58,3.74-1.84,1.91-4.19,2.72-6.79,2.84-2.09.09-4.19,0-6.27.2-5.07.47-7.36,3.82-5.66,8.64,2.15,6.12,6.42,10.56,11.98,13.76,5.94,3.42,12.45,5.29,19.1,6.74,2.46.54,4.9,1.08,7.34,1.71,4.95,1.27,7.81,4.38,8.27,9.59-.17.05-.37.18-.55.15-13.69-2.86-27.37-5.81-40.12-11.82-16.17-7.65-29.18-18.82-37.7-34.75C1.12,66.68-.99,55.93.43,44.54c.04-.26.1-.53.15-.78Z"/>
  <path class="cls-1" d="M77.76,42.56c-1.93-6.67,1.43-13.32,7.62-15.12,5.98-1.73,12.69,2.21,14.54,8.53,1.9,6.49-1.57,13.47-7.59,15.27-6.08,1.81-12.66-2.11-14.56-8.68h0Z"/>
  <path class="cls-1" d="M45.19,97.49c7.03,3.46,14.54,4.5,22.29,4.71,2.76.08,5.54.63,8.23,1.29,2.76.68,4.55,2.54,5.16,5.85-13.19-.46-25.31-3.32-35.67-11.84h-.01Z"/>
  <path class="cls-1" d="M48.27,92.81c4.99-.22,10.59-.61,16.18-.66,2.16-.02,4.39.55,6.46,1.25,1,.33,1.69,1.56,2.35,2.65-8.93.77-17.54.44-24.98-3.24h0Z"/>
</svg>